<?xml version="1.0" encoding="utf-8"?>
<!-- Generator: Adobe Illustrator 24.0.1, SVG Export Plug-In . SVG Version: 6.00 Build 0)  -->
<svg version="1.1" id="Capa_1" xmlns="http://www.w3.org/2000/svg" xmlns:xlink="http://www.w3.org/1999/xlink" x="0px" y="0px"
	 viewBox="0 0 768 1000" style="enable-background:new 0 0 768 1000;" xml:space="preserve">
<style type="text/css">
	.st0{fill:#4F53FF;}
	.st1{fill:#2E5871;}
	.st2{fill:#E3B591;}
	.st3{fill:#F0C8A4;}
	.st4{fill:#FA6021;}
	.st5{fill:#FA6121;}
	.st6{fill:#905F2D;}
	.st7{fill:#91602E;}
	.st8{fill:#915F2D;}
	.st9{fill:#E3B592;}
	.st10{fill:#F4EFEB;}
	.st11{fill:#FFFFFF;}
</style>
<g>
	<path class="st0" d="M747,926c0,22-18,40-40,40H61c-22,0-40-18-40-40V495c0-22,18-40,40-40h646c22,0,40,18,40,40V926z"/>
</g>
<g>
	<g>
		<path class="st1" d="M115.1,341.1c0-14.7,0-29.4,0-44.1c0.4-1,0.9-2.1,1.1-3.1c1.6-10,2.5-20.2,4.7-30
			c14.2-65.3,47.6-118.8,100.9-159c61-46,130-62.9,205.4-51.1c61,9.5,113,37.5,154.5,83.2c58.1,64.1,80.6,139.7,67.8,225
			c-8.5,56.7-34.1,105.4-74.3,146.3c-13.6,13.9-28.4,26.4-45.3,36.4c-3.4-13.6-7.1-27.2-10.2-40.9c-4.1-18-13.3-31.8-30.7-39.2
			c-14.5-6.1-29-12-43.6-18c-5.7-1.7-11.5-3.3-17.2-5c-3.1-0.9-6.2-2-9.4-2.6c-3.3-0.6-4.6-2-4.4-5.5c0.3-4.1,0.1-8.3,0.1-12.4
			c2.3-0.7,5-0.8,6.7-2.3c10.2-8.8,20.3-17.8,30.1-27c1.8-1.7,2.9-4.7,3.1-7.2c1.1-11.5,1.9-23,2.7-34.5c-0.2-4.4,2.2-6.3,5.7-8.7
			c4.9-3.3,9.8-7.7,12.7-12.7c10.5-18.2,3.6-41.6-13.8-46.6c1.1-20,2.5-40.1,3.2-60.1c0.3-10.1-4.6-18.1-12.9-23.9
			c-9.7-6.8-20.8-9-32.3-9.1c-23.8-0.2-47.6-0.1-71.3,0c-9.3,0-18.5,1.6-26.9,5.9c-11.8,5.9-18.9,15.2-18.3,28.7
			c0.8,19.5,2.2,39,3.3,58.6c-4.2,3.2-9.5,5.7-12.5,9.8c-11.5,15.7-4.9,41.1,12.5,50.1c1.5,0.8,2.8,1.9,4.1,2.9
			c1,13.9,2,27.9,3.3,41.8c0.2,1.8,1.6,3.8,3.1,5.1c9.3,8.5,18.6,17,28.2,25.2c2.3,2,5.7,2.6,8.6,3.9c0,1,0,2.1,0,3.1
			c0,14,0,14-13.6,17.4c-5.8,1.7-11.6,3.4-17.4,5c-2.6,0.9-5.3,1.8-7.9,2.7c-16.5,5.6-32.7,11.7-47.1,22c-7.6,5.4-13,12.1-15,21.7
			c-3.8,17.7-8.3,35.2-12.6,52.8c-0.8-0.4-1.6-0.6-2.3-1.1c-66.7-44.6-107-106.4-119.8-185.8C117.1,352.9,116.1,347,115.1,341.1z"/>
		<path class="st2" d="M461.7,282.1c17.4,5,24.3,28.4,13.8,46.6c-2.9,5-7.8,9.4-12.7,12.7c-3.5,2.4-6,4.3-5.7,8.7
			c-0.2-0.9-0.5-1.8-1-3.8c-1.8,4.6-2.9,8.3-4.6,11.7c-4,8.1-7.7,16.5-12.7,24c-5.4,8.2-13.8,7.7-19.4-0.2c-1.7-2.4-3.1-5.2-5.2-7.2
			c-2.5-2.4-5.4-4.9-8.6-6c-7-2.6-14.4-4.3-21.6-6.4c0-46.6,0-93.2,0-139.8c8.4-1.4,16.9-2.6,25.3-4.4c16.8-3.5,28.2,3.2,32.5,19.7
			c3.8,14.5,4.6,29.3,3.6,44.3c-0.2,2.6,0,5.3,0,7.4C451,286.9,456.4,284.5,461.7,282.1z"/>
		<path class="st3" d="M384,222.5c0,46.6,0,93.2,0,139.8c-0.3,0.3-0.7,0.7-1,1c-3.9,0.9-7.7,2.2-11.7,2.7
			c-10.7,1.4-17.9,6.9-23.3,16.2c-4.5,7.8-13.6,8.1-18.6,0.4c-5.3-8.1-9.2-17.2-13.6-25.8c-1.9-3.8-3.6-7.8-5.4-11.8
			c-1.4-1-2.6-2.2-4.1-2.9c-17.4-9-24-34.4-12.5-50.1c3-4.1,8.3-6.6,12.5-9.8c5.5,2.5,10.9,4.9,16.6,7.5c-0.1-2.6-0.3-5.5-0.5-8.5
			c-0.9-14.9-0.2-29.7,3.8-44.2c4.2-15.4,15.9-22.3,31.6-19.1C366.5,219.7,375.3,221,384,222.5z"/>
		<path class="st4" d="M529.9,544.6c-12.5,6.9-24.6,14.5-37.5,20.6c-20.7,9.8-42.6,15.9-65.9,19.5c2.1-10.5,4.1-20.5,6-30.6
			c6.6-35.1,11.2-70.4,12.6-106.1c0-0.5,0.2-1,0.3-1.5c14.5,6,29.1,11.9,43.6,18c17.4,7.4,26.6,21.2,30.7,39.2
			C522.8,517.4,526.5,531,529.9,544.6z"/>
		<path class="st5" d="M322.6,446.6c1.8,20.4,2.9,40.8,5.7,61.1c3.4,24.2,8.2,48.2,12.4,72.3c0.2,1.4,0.4,2.7,0.8,5.7
			c-15.1-4.1-29.7-7.4-43.8-11.9c-18.5-5.8-36-14.3-52.6-24.4c-1.8-1.1-3.3-2.4-5-3.7c4.2-17.6,8.8-35.1,12.6-52.8
			c2-9.6,7.4-16.3,15-21.7c14.3-10.3,30.6-16.4,47.1-22C317.4,448.4,320,447.5,322.6,446.6z"/>
		<path class="st6" d="M384,222.5c-8.7-1.5-17.5-2.8-26.1-4.6c-15.7-3.2-27.3,3.7-31.6,19.1c-3.9,14.5-4.7,29.3-3.8,44.2
			c0.2,2.9,0.3,5.8,0.5,8.5c-5.7-2.6-11.2-5-16.6-7.5c-1.1-19.5-2.5-39-3.3-58.6c-0.5-13.5,6.6-22.8,18.3-28.7
			c8.5-4.3,17.6-5.8,26.9-5.9c23.8-0.1,47.6-0.2,71.3,0c11.5,0.1,22.6,2.3,32.3,9.1c8.3,5.8,13.3,13.8,12.9,23.9
			c-0.7,20.1-2.1,40.1-3.2,60.1c-5.4,2.4-10.7,4.8-16.3,7.3c0-2.1-0.2-4.7,0-7.4c1.1-14.9,0.3-29.7-3.6-44.3
			c-4.3-16.5-15.8-23.2-32.5-19.7C400.9,219.8,392.5,221,384,222.5z"/>
		<path class="st7" d="M383,363.3c0.3-0.3,0.7-0.7,1-1c7.2,2.1,14.6,3.9,21.6,6.4c3.2,1.2,6.1,3.6,8.6,6c2.1,2,3.5,4.8,5.2,7.2
			c5.6,8,14,8.5,19.4,0.2c5-7.5,8.6-15.9,12.7-24c1.7-3.4,2.8-7.1,4.6-11.7c0.5,1.9,0.8,2.8,1,3.8c-0.9,11.5-1.6,23-2.7,34.5
			c-0.2,2.5-1.4,5.5-3.1,7.2c-9.8,9.2-19.9,18.2-30.1,27c-1.6,1.4-4.4,1.5-6.7,2.3c-10.2,0-20.3,0-30.5,0c-0.3-0.2-0.7-0.3-1-0.5
			c0-12.8,0-25.6,0-38.4c4.3-0.2,8.5-0.4,13.2-0.6c-2.3-6.9-7.6-7.9-13.2-8.2C383,370,383,366.6,383,363.3z"/>
		<path class="st8" d="M383,363.3c0,3.3,0,6.7,0,10c-5.2,0.7-9.2,2.9-11.6,8.3c4.4,0.2,8,0.4,11.6,0.6c0,12.8,0,25.6,0,38.4
			c-9.8,0.2-19.6,0.3-29.4,0.5c-2.9-1.3-6.3-1.9-8.6-3.9c-9.6-8.2-18.9-16.7-28.2-25.2c-1.4-1.3-2.9-3.3-3.1-5.1
			c-1.3-13.9-2.2-27.9-3.3-41.8c1.8,3.9,3.4,7.9,5.4,11.8c4.4,8.7,8.4,17.7,13.6,25.8c5,7.6,14.1,7.4,18.6-0.4
			c5.4-9.3,12.6-14.9,23.3-16.2C375.3,365.5,379.1,364.2,383,363.3z"/>
		<path class="st9" d="M384,421.1c10.2,0,20.3,0,30.5,0c0,4.1,0.2,8.3-0.1,12.4c-0.2,3.4,1.1,4.9,4.4,5.5c3.2,0.5,6.2,1.7,9.4,2.6
			c-1.3,4.1-2.4,8.3-3.9,12.3c-6,16.8-22.3,28.1-40.2,27.9C384.1,461.5,384,441.3,384,421.1z"/>
		<path class="st3" d="M384,421.1c0,20.2,0,40.5,0.1,60.7c-20.1,0.3-38.4-14.6-42.2-34.3c-0.4-2-1.3-3.9-1.9-5.9
			c13.6-3.4,13.6-3.4,13.6-17.4c0-1,0-2.1,0-3.1c9.8-0.2,19.6-0.3,29.3-0.5C383.3,420.8,383.7,420.9,384,421.1z"/>
		<path class="st10" d="M383,382.2c-3.6-0.2-7.2-0.3-11.6-0.6c2.5-5.3,6.5-7.6,11.6-8.3c5.6,0.4,10.9,1.4,13.2,8.2
			C391.5,381.8,387.2,382,383,382.2z"/>
	</g>
</g>
<g>
	<path d="M154.6,702.3c0,0.3,0,0.5-0.1,0.6c-0.1,0.2-0.3,0.3-0.6,0.4s-0.8,0.2-1.5,0.2c-0.7,0-1.6,0.1-2.7,0.1c-1,0-1.7,0-2.3-0.1
		c-0.6,0-1-0.1-1.4-0.3c-0.3-0.1-0.6-0.3-0.7-0.5s-0.3-0.4-0.3-0.7l-4-9.9c-0.5-1.1-0.9-2.1-1.4-3c-0.5-0.9-1-1.6-1.5-2.2
		c-0.6-0.6-1.2-1-1.9-1.3c-0.7-0.3-1.6-0.4-2.5-0.4h-2.8v16.9c0,0.2-0.1,0.4-0.2,0.6c-0.1,0.2-0.4,0.3-0.7,0.4
		c-0.3,0.1-0.8,0.2-1.4,0.3c-0.6,0.1-1.3,0.1-2.2,0.1c-0.9,0-1.6,0-2.2-0.1s-1-0.2-1.4-0.3c-0.3-0.1-0.6-0.3-0.7-0.4
		c-0.1-0.2-0.2-0.4-0.2-0.6v-40.2c0-1,0.3-1.7,0.8-2.2c0.5-0.4,1.1-0.7,1.9-0.7h11.5c1.2,0,2.1,0,2.9,0.1c0.8,0,1.4,0.1,2.1,0.2
		c1.8,0.3,3.4,0.7,4.8,1.3c1.4,0.6,2.6,1.4,3.6,2.4c1,1,1.7,2.2,2.3,3.5c0.5,1.4,0.8,2.9,0.8,4.7c0,1.5-0.2,2.8-0.6,4
		c-0.4,1.2-0.9,2.3-1.7,3.3c-0.7,1-1.6,1.8-2.7,2.5c-1.1,0.7-2.3,1.3-3.7,1.7c0.7,0.3,1.3,0.7,1.9,1.2c0.6,0.5,1.1,1,1.6,1.7
		c0.5,0.6,1,1.4,1.5,2.2c0.5,0.8,0.9,1.8,1.3,2.8l3.7,8.7c0.3,0.9,0.6,1.5,0.7,1.9C154.5,701.8,154.6,702.1,154.6,702.3z M143,672.3
		c0-1.5-0.3-2.7-1-3.7c-0.7-1-1.7-1.7-3.2-2.1c-0.5-0.1-1-0.2-1.6-0.3s-1.4-0.1-2.4-0.1h-4v12.5h4.6c1.3,0,2.4-0.2,3.3-0.5
		c1-0.3,1.8-0.7,2.4-1.3c0.6-0.6,1.1-1.2,1.4-2C142.8,674.1,143,673.2,143,672.3z"/>
	<path d="M200.3,680.8c0,3.7-0.5,7-1.4,9.8c-0.9,2.9-2.3,5.3-4.1,7.4c-1.8,2-4,3.6-6.7,4.6c-2.7,1.1-5.7,1.6-9.2,1.6
		c-3.4,0-6.4-0.5-9-1.4c-2.6-0.9-4.7-2.3-6.4-4.1s-3-4.2-3.8-7c-0.9-2.8-1.3-6.2-1.3-10.1c0-3.6,0.5-6.8,1.4-9.7
		c0.9-2.9,2.3-5.3,4.1-7.3c1.8-2,4-3.5,6.7-4.6c2.7-1.1,5.7-1.6,9.2-1.6c3.3,0,6.3,0.4,8.9,1.3s4.7,2.3,6.4,4.1c1.7,1.8,3,4.2,3.9,7
		C199.8,673.7,200.3,677,200.3,680.8z M190.8,681.3c0-2.3-0.2-4.4-0.5-6.3c-0.4-1.9-1-3.5-1.9-4.9c-0.9-1.4-2-2.4-3.5-3.1
		c-1.5-0.7-3.3-1.1-5.5-1.1c-2.2,0-4.1,0.4-5.5,1.2c-1.5,0.8-2.7,1.9-3.6,3.3c-0.9,1.4-1.6,3-1.9,4.9c-0.4,1.9-0.6,3.8-0.6,5.9
		c0,2.4,0.2,4.6,0.5,6.5c0.4,1.9,1,3.6,1.8,4.9c0.9,1.4,2,2.4,3.5,3.1c1.5,0.7,3.3,1.1,5.5,1.1c2.2,0,4.1-0.4,5.5-1.2
		c1.5-0.8,2.7-1.9,3.6-3.3c0.9-1.4,1.6-3.1,1.9-4.9C190.7,685.4,190.8,683.4,190.8,681.3z"/>
	<path d="M244.3,700.3c0,0.5-0.1,1-0.3,1.4c-0.2,0.4-0.4,0.8-0.7,1s-0.7,0.5-1.1,0.6c-0.4,0.1-0.8,0.2-1.3,0.2h-3.8
		c-0.8,0-1.5-0.1-2.1-0.2c-0.6-0.2-1.1-0.4-1.6-0.9c-0.5-0.4-1-1-1.4-1.7c-0.5-0.7-1-1.6-1.5-2.8l-11-20.7c-0.6-1.2-1.3-2.6-1.9-4
		c-0.7-1.4-1.3-2.8-1.8-4.2h-0.1c0.1,1.6,0.2,3.3,0.2,4.9c0,1.6,0.1,3.3,0.1,5v23.1c0,0.2-0.1,0.4-0.2,0.6c-0.1,0.2-0.3,0.3-0.6,0.5
		s-0.7,0.2-1.2,0.3c-0.5,0.1-1.2,0.1-2,0.1c-0.8,0-1.5,0-2-0.1c-0.5-0.1-0.9-0.2-1.2-0.3c-0.3-0.1-0.5-0.3-0.6-0.5
		c-0.1-0.2-0.2-0.4-0.2-0.6v-39.8c0-1.1,0.3-1.9,0.9-2.4c0.6-0.5,1.4-0.8,2.3-0.8h4.8c0.9,0,1.6,0.1,2.2,0.2
		c0.6,0.1,1.1,0.4,1.6,0.7c0.5,0.3,0.9,0.8,1.3,1.4c0.4,0.6,0.8,1.4,1.3,2.2l8.6,16.2c0.5,1,1,1.9,1.5,2.9c0.5,0.9,1,1.9,1.4,2.8
		c0.5,0.9,0.9,1.9,1.3,2.8c0.4,0.9,0.9,1.8,1.3,2.7h0c-0.1-1.6-0.1-3.3-0.2-5c0-1.7-0.1-3.4-0.1-5v-20.7c0-0.2,0.1-0.4,0.2-0.6
		c0.1-0.2,0.4-0.3,0.7-0.5c0.3-0.1,0.7-0.2,1.3-0.3c0.5-0.1,1.2-0.1,2-0.1c0.8,0,1.4,0,1.9,0.1c0.5,0.1,0.9,0.2,1.2,0.3
		c0.3,0.1,0.5,0.3,0.6,0.5c0.1,0.2,0.2,0.4,0.2,0.6V700.3z"/>
	<path d="M290.2,700.1c0.3,0.8,0.4,1.5,0.5,1.9s0,0.8-0.3,1.1c-0.3,0.2-0.7,0.4-1.3,0.4c-0.6,0.1-1.5,0.1-2.6,0.1
		c-1.2,0-2.1,0-2.7-0.1c-0.6,0-1.1-0.1-1.5-0.2c-0.3-0.1-0.6-0.2-0.7-0.4c-0.1-0.2-0.3-0.4-0.3-0.7l-3-8.9h-16.6l-2.8,8.6
		c-0.1,0.3-0.2,0.6-0.4,0.8c-0.1,0.2-0.4,0.4-0.7,0.5c-0.3,0.1-0.8,0.2-1.4,0.3c-0.6,0-1.4,0.1-2.4,0.1c-1,0-1.9,0-2.5-0.1
		c-0.6-0.1-1-0.2-1.2-0.5c-0.2-0.3-0.3-0.6-0.2-1.1s0.2-1.1,0.5-1.9l13.6-39.2c0.1-0.4,0.3-0.7,0.5-0.9c0.2-0.2,0.5-0.4,0.9-0.5
		c0.4-0.1,1-0.2,1.7-0.2c0.7,0,1.6-0.1,2.8-0.1c1.3,0,2.4,0,3.2,0.1c0.8,0,1.4,0.1,1.9,0.2s0.8,0.3,1,0.6c0.2,0.3,0.4,0.6,0.5,1
		L290.2,700.1z M269.9,667.7L269.9,667.7l-6.3,18.8h12.5L269.9,667.7z"/>
	<path d="M320.7,699.7c0,0.7,0,1.3-0.1,1.7c-0.1,0.5-0.1,0.9-0.3,1.2c-0.1,0.3-0.3,0.5-0.4,0.7s-0.4,0.2-0.6,0.2H299
		c-0.8,0-1.4-0.2-1.9-0.7c-0.5-0.4-0.8-1.2-0.8-2.2v-40.2c0-0.2,0.1-0.4,0.2-0.6c0.1-0.2,0.4-0.3,0.7-0.4c0.3-0.1,0.8-0.2,1.4-0.3
		s1.3-0.1,2.2-0.1c0.9,0,1.6,0,2.2,0.1c0.6,0.1,1,0.2,1.4,0.3c0.3,0.1,0.6,0.3,0.7,0.4c0.1,0.2,0.2,0.4,0.2,0.6V696h13.9
		c0.2,0,0.4,0.1,0.6,0.2s0.3,0.3,0.4,0.6c0.1,0.3,0.2,0.7,0.3,1.1C320.6,698.4,320.7,699,320.7,699.7z"/>
	<path d="M362.7,680.7c0,4.1-0.5,7.5-1.6,10.4s-2.6,5.2-4.6,7.1c-2,1.8-4.4,3.2-7.2,4c-2.8,0.9-6.2,1.3-10.1,1.3h-10.6
		c-0.8,0-1.4-0.2-1.9-0.7c-0.5-0.4-0.8-1.2-0.8-2.2v-38.6c0-1,0.3-1.7,0.8-2.2c0.5-0.4,1.1-0.7,1.9-0.7H340c3.9,0,7.3,0.5,10,1.4
		c2.7,0.9,5.1,2.3,6.9,4.1c1.9,1.8,3.3,4,4.3,6.7C362.2,674.1,362.7,677.2,362.7,680.7z M353.4,681c0-2.1-0.2-4-0.7-5.8
		c-0.5-1.8-1.3-3.4-2.4-4.7c-1.1-1.3-2.5-2.4-4.2-3.1c-1.7-0.7-3.9-1.1-6.7-1.1h-4.5v30.1h4.7c2.5,0,4.5-0.3,6.2-1
		c1.7-0.6,3.1-1.6,4.2-2.9c1.1-1.3,2-2.9,2.5-4.8C353.1,685.8,353.4,683.6,353.4,681z"/>
	<path d="M407.9,701.9c-0.1,0.4-0.3,0.7-0.4,0.9c-0.2,0.2-0.5,0.4-0.9,0.5c-0.4,0.1-1,0.2-1.7,0.2c-0.7,0-1.6,0.1-2.8,0.1
		c-0.9,0-1.7,0-2.3,0s-1.2,0-1.7-0.1c-0.5,0-0.8-0.1-1.1-0.2c-0.3-0.1-0.5-0.2-0.7-0.3s-0.3-0.3-0.4-0.5s-0.2-0.4-0.3-0.7
		l-13.2-39.2c-0.3-0.8-0.4-1.5-0.5-1.9c-0.1-0.5,0.1-0.8,0.3-1.1c0.3-0.2,0.8-0.4,1.5-0.4s1.6-0.1,2.9-0.1c1,0,1.9,0,2.5,0.1
		c0.6,0,1,0.1,1.4,0.2c0.3,0.1,0.5,0.3,0.7,0.5c0.1,0.2,0.2,0.5,0.4,0.9l10.8,34.1h0l10.6-33.9c0.1-0.4,0.2-0.7,0.3-0.9
		c0.1-0.2,0.4-0.4,0.7-0.6s0.8-0.2,1.4-0.3c0.6,0,1.5-0.1,2.5-0.1c1,0,1.9,0,2.4,0.1s1,0.2,1.2,0.5c0.2,0.3,0.3,0.6,0.2,1.1
		s-0.3,1.1-0.5,1.9L407.9,701.9z"/>
	<path d="M436.3,702.2c0,0.2-0.1,0.4-0.2,0.6c-0.1,0.2-0.4,0.3-0.7,0.4c-0.3,0.1-0.8,0.2-1.4,0.3c-0.6,0.1-1.3,0.1-2.2,0.1
		c-0.9,0-1.6,0-2.2-0.1c-0.6-0.1-1-0.2-1.4-0.3c-0.3-0.1-0.6-0.3-0.7-0.4c-0.1-0.2-0.2-0.4-0.2-0.6v-41.8c0-0.2,0.1-0.4,0.2-0.6
		c0.1-0.2,0.4-0.3,0.8-0.4c0.4-0.1,0.8-0.2,1.4-0.3c0.6-0.1,1.3-0.1,2.2-0.1c0.9,0,1.6,0,2.2,0.1c0.6,0.1,1,0.2,1.4,0.3
		c0.3,0.1,0.6,0.3,0.7,0.4c0.1,0.2,0.2,0.4,0.2,0.6V702.2z"/>
	<path d="M478.8,702.3c0,0.3,0,0.5-0.1,0.6c-0.1,0.2-0.3,0.3-0.6,0.4s-0.8,0.2-1.5,0.2c-0.7,0-1.6,0.1-2.7,0.1c-1,0-1.7,0-2.3-0.1
		c-0.6,0-1-0.1-1.3-0.3c-0.3-0.1-0.6-0.3-0.7-0.5s-0.3-0.4-0.3-0.7l-4-9.9c-0.5-1.1-0.9-2.1-1.4-3c-0.5-0.9-1-1.6-1.5-2.2
		c-0.6-0.6-1.2-1-1.9-1.3c-0.7-0.3-1.6-0.4-2.5-0.4H455v16.9c0,0.2-0.1,0.4-0.2,0.6c-0.1,0.2-0.4,0.3-0.7,0.4
		c-0.3,0.1-0.8,0.2-1.4,0.3c-0.6,0.1-1.3,0.1-2.2,0.1c-0.9,0-1.6,0-2.2-0.1c-0.6-0.1-1-0.2-1.4-0.3c-0.3-0.1-0.6-0.3-0.7-0.4
		c-0.1-0.2-0.2-0.4-0.2-0.6v-40.2c0-1,0.3-1.7,0.8-2.2c0.5-0.4,1.1-0.7,1.9-0.7h11.5c1.2,0,2.1,0,2.9,0.1c0.8,0,1.4,0.1,2.1,0.2
		c1.8,0.3,3.4,0.7,4.8,1.3c1.4,0.6,2.6,1.4,3.6,2.4c1,1,1.7,2.2,2.3,3.5c0.5,1.4,0.8,2.9,0.8,4.7c0,1.5-0.2,2.8-0.6,4
		c-0.4,1.2-0.9,2.3-1.7,3.3c-0.7,1-1.6,1.8-2.7,2.5c-1.1,0.7-2.3,1.3-3.7,1.7c0.7,0.3,1.3,0.7,1.9,1.2c0.6,0.5,1.1,1,1.6,1.7
		c0.5,0.6,1,1.4,1.5,2.2c0.5,0.8,0.9,1.8,1.3,2.8l3.7,8.7c0.3,0.9,0.6,1.5,0.7,1.9C478.7,701.8,478.8,702.1,478.8,702.3z
		 M467.2,672.3c0-1.5-0.3-2.7-1-3.7c-0.7-1-1.7-1.7-3.2-2.1c-0.5-0.1-1-0.2-1.6-0.3c-0.6-0.1-1.4-0.1-2.4-0.1h-4v12.5h4.6
		c1.3,0,2.4-0.2,3.3-0.5c1-0.3,1.8-0.7,2.4-1.3c0.6-0.6,1.1-1.2,1.4-2C467,674.1,467.2,673.2,467.2,672.3z"/>
	<path d="M521.6,700.1c0.3,0.8,0.4,1.5,0.5,1.9s0,0.8-0.3,1.1c-0.3,0.2-0.7,0.4-1.3,0.4c-0.6,0.1-1.5,0.1-2.6,0.1
		c-1.2,0-2.1,0-2.7-0.1c-0.7,0-1.1-0.1-1.5-0.2c-0.3-0.1-0.6-0.2-0.7-0.4c-0.1-0.2-0.3-0.4-0.3-0.7l-3-8.9H493l-2.8,8.6
		c-0.1,0.3-0.2,0.6-0.4,0.8c-0.1,0.2-0.4,0.4-0.7,0.5c-0.3,0.1-0.8,0.2-1.4,0.3c-0.6,0-1.4,0.1-2.4,0.1c-1,0-1.9,0-2.5-0.1
		c-0.6-0.1-1-0.2-1.2-0.5c-0.2-0.3-0.3-0.6-0.2-1.1s0.2-1.1,0.5-1.9l13.6-39.2c0.1-0.4,0.3-0.7,0.5-0.9c0.2-0.2,0.5-0.4,0.9-0.5
		s1-0.2,1.7-0.2c0.7,0,1.6-0.1,2.8-0.1c1.3,0,2.4,0,3.2,0.1c0.8,0,1.4,0.1,1.9,0.2c0.4,0.1,0.8,0.3,1,0.6c0.2,0.3,0.4,0.6,0.5,1
		L521.6,700.1z M501.3,667.7L501.3,667.7l-6.3,18.8h12.5L501.3,667.7z"/>
	<path d="M557.6,696.8c0,0.6,0,1.1-0.1,1.5c0,0.4-0.1,0.7-0.2,1s-0.2,0.5-0.3,0.7c-0.1,0.2-0.3,0.4-0.5,0.7c-0.3,0.3-0.7,0.6-1.5,1
		c-0.7,0.4-1.6,0.8-2.6,1.2c-1,0.4-2.2,0.7-3.6,0.9c-1.3,0.3-2.8,0.4-4.3,0.4c-3,0-5.8-0.5-8.2-1.4c-2.4-0.9-4.5-2.3-6.2-4.2
		c-1.7-1.9-3-4.2-3.9-7c-0.9-2.8-1.4-6-1.4-9.7c0-3.8,0.5-7.1,1.5-10c1-2.9,2.4-5.4,4.2-7.3c1.8-2,4-3.5,6.5-4.5s5.3-1.5,8.3-1.5
		c1.2,0,2.4,0.1,3.6,0.3c1.1,0.2,2.2,0.5,3.2,0.8c1,0.3,1.8,0.7,2.6,1.1c0.8,0.4,1.3,0.8,1.6,1.1c0.3,0.3,0.5,0.6,0.6,0.8
		c0.1,0.2,0.2,0.5,0.3,0.8c0.1,0.3,0.1,0.7,0.2,1.1c0,0.4,0.1,1,0.1,1.6c0,0.7,0,1.3-0.1,1.7c0,0.5-0.1,0.9-0.2,1.2
		c-0.1,0.3-0.3,0.5-0.4,0.6c-0.2,0.1-0.3,0.2-0.5,0.2c-0.3,0-0.8-0.2-1.3-0.6c-0.5-0.4-1.2-0.8-2-1.3s-1.8-0.9-3-1.3
		c-1.2-0.4-2.5-0.6-4.1-0.6c-1.8,0-3.3,0.4-4.7,1.1c-1.4,0.7-2.6,1.7-3.5,3.1c-1,1.3-1.7,2.9-2.2,4.8c-0.5,1.9-0.8,4-0.8,6.4
		c0,2.6,0.3,4.8,0.8,6.8c0.5,1.9,1.3,3.5,2.3,4.7c1,1.2,2.2,2.1,3.6,2.8c1.4,0.6,3,0.9,4.7,0.9c1.6,0,3-0.2,4.1-0.6
		c1.2-0.4,2.2-0.8,3-1.2c0.8-0.5,1.5-0.9,2.1-1.2c0.5-0.4,1-0.5,1.2-0.5c0.2,0,0.4,0,0.5,0.1c0.1,0.1,0.3,0.3,0.3,0.5
		c0.1,0.3,0.2,0.7,0.2,1.1C557.5,695.3,557.6,695.9,557.6,696.8z"/>
	<path d="M600.3,700.1c0.3,0.8,0.4,1.5,0.5,1.9s0,0.8-0.3,1.1c-0.3,0.2-0.7,0.4-1.3,0.4c-0.6,0.1-1.5,0.1-2.6,0.1
		c-1.2,0-2.1,0-2.7-0.1c-0.7,0-1.1-0.1-1.5-0.2c-0.3-0.1-0.6-0.2-0.7-0.4c-0.1-0.2-0.3-0.4-0.3-0.7l-3-8.9h-16.6l-2.8,8.6
		c-0.1,0.3-0.2,0.6-0.4,0.8c-0.1,0.2-0.4,0.4-0.7,0.5c-0.3,0.1-0.8,0.2-1.4,0.3c-0.6,0-1.4,0.1-2.4,0.1c-1,0-1.9,0-2.5-0.1
		c-0.6-0.1-1-0.2-1.2-0.5c-0.2-0.3-0.3-0.6-0.2-1.1s0.2-1.1,0.5-1.9l13.6-39.2c0.1-0.4,0.3-0.7,0.5-0.9c0.2-0.2,0.5-0.4,0.9-0.5
		s1-0.2,1.7-0.2c0.7,0,1.6-0.1,2.8-0.1c1.3,0,2.4,0,3.2,0.1c0.8,0,1.4,0.1,1.9,0.2c0.4,0.1,0.8,0.3,1,0.6c0.2,0.3,0.4,0.6,0.5,1
		L600.3,700.1z M579.9,667.7L579.9,667.7l-6.3,18.8h12.5L579.9,667.7z"/>
	<path d="M652.9,696.8c0,0.6,0,1.1-0.1,1.5c0,0.4-0.1,0.7-0.2,1s-0.2,0.5-0.3,0.7c-0.1,0.2-0.3,0.4-0.5,0.7c-0.3,0.3-0.7,0.6-1.5,1
		c-0.7,0.4-1.6,0.8-2.6,1.2c-1,0.4-2.2,0.7-3.6,0.9c-1.3,0.3-2.8,0.4-4.3,0.4c-3,0-5.8-0.5-8.2-1.4c-2.4-0.9-4.5-2.3-6.2-4.2
		c-1.7-1.9-3-4.2-3.9-7c-0.9-2.8-1.4-6-1.4-9.7c0-3.8,0.5-7.1,1.5-10c1-2.9,2.4-5.4,4.2-7.3c1.8-2,4-3.5,6.5-4.5s5.3-1.5,8.3-1.5
		c1.2,0,2.4,0.1,3.6,0.3c1.1,0.2,2.2,0.5,3.2,0.8c1,0.3,1.8,0.7,2.6,1.1c0.8,0.4,1.3,0.8,1.6,1.1c0.3,0.3,0.5,0.6,0.6,0.8
		c0.1,0.2,0.2,0.5,0.3,0.8c0.1,0.3,0.1,0.7,0.2,1.1c0,0.4,0.1,1,0.1,1.6c0,0.7,0,1.3-0.1,1.7c0,0.5-0.1,0.9-0.2,1.2
		c-0.1,0.3-0.3,0.5-0.4,0.6c-0.2,0.1-0.3,0.2-0.5,0.2c-0.3,0-0.8-0.2-1.3-0.6c-0.5-0.4-1.2-0.8-2-1.3s-1.8-0.9-3-1.3
		c-1.2-0.4-2.5-0.6-4.1-0.6c-1.8,0-3.3,0.4-4.7,1.1c-1.4,0.7-2.6,1.7-3.5,3.1c-1,1.3-1.7,2.9-2.2,4.8c-0.5,1.9-0.8,4-0.8,6.4
		c0,2.6,0.3,4.8,0.8,6.8c0.5,1.9,1.3,3.5,2.3,4.7c1,1.2,2.2,2.1,3.6,2.8c1.4,0.6,3,0.9,4.7,0.9c1.6,0,3-0.2,4.1-0.6
		c1.2-0.4,2.2-0.8,3-1.2c0.8-0.5,1.5-0.9,2.1-1.2c0.5-0.4,1-0.5,1.2-0.5c0.2,0,0.4,0,0.5,0.1c0.1,0.1,0.3,0.3,0.3,0.5
		c0.1,0.3,0.2,0.7,0.2,1.1C652.8,695.3,652.9,695.9,652.9,696.8z"/>
	<path d="M668.9,698.5c0,2.1-0.4,3.5-1.1,4.3s-2.1,1.1-4,1.1s-3.2-0.4-4-1.1c-0.7-0.7-1.1-2.1-1.1-4.1c0-2.1,0.4-3.6,1.1-4.3
		c0.7-0.7,2.1-1.1,4-1.1c1.9,0,3.2,0.4,3.9,1.1C668.6,695.1,668.9,696.5,668.9,698.5z"/>
</g>
<g>
	<path class="st11" d="M217.3,743.2c0,0.2,0,0.4,0,0.5c0,0.1,0,0.2-0.1,0.3s-0.1,0.1-0.1,0.2c-0.1,0-0.1,0.1-0.2,0.1h-6.7
		c-0.2,0-0.4-0.1-0.6-0.2c-0.2-0.1-0.2-0.3-0.2-0.7v-11.6c0-0.3,0.1-0.5,0.2-0.7c0.2-0.1,0.3-0.2,0.6-0.2h6.6c0.1,0,0.1,0,0.2,0.1
		s0.1,0.1,0.1,0.2c0,0.1,0.1,0.2,0.1,0.3c0,0.1,0,0.3,0,0.5c0,0.2,0,0.4,0,0.5c0,0.1,0,0.2-0.1,0.3s-0.1,0.1-0.1,0.2
		c0,0-0.1,0.1-0.2,0.1h-4.7v3.2h4c0.1,0,0.1,0,0.2,0.1c0.1,0,0.1,0.1,0.1,0.2c0,0.1,0.1,0.2,0.1,0.3c0,0.1,0,0.3,0,0.5
		c0,0.2,0,0.4,0,0.5c0,0.1,0,0.2-0.1,0.3c0,0.1-0.1,0.1-0.1,0.2c-0.1,0-0.1,0.1-0.2,0.1h-4v3.7h4.8c0.1,0,0.1,0,0.2,0.1
		c0.1,0,0.1,0.1,0.1,0.2s0.1,0.2,0.1,0.3C217.3,742.8,217.3,743,217.3,743.2z"/>
	<path class="st11" d="M226,741.3c0,0.5-0.1,1-0.3,1.4c-0.2,0.4-0.5,0.7-0.8,1c-0.4,0.3-0.8,0.5-1.3,0.6c-0.5,0.1-1,0.2-1.6,0.2
		c-0.3,0-0.7,0-1-0.1c-0.3-0.1-0.6-0.1-0.8-0.2c-0.2-0.1-0.5-0.2-0.6-0.2s-0.3-0.2-0.4-0.2c-0.1-0.1-0.1-0.2-0.2-0.3
		c0-0.2-0.1-0.4-0.1-0.7c0-0.2,0-0.4,0-0.5c0-0.1,0-0.2,0.1-0.3c0-0.1,0.1-0.1,0.1-0.1c0,0,0.1,0,0.2,0c0.1,0,0.2,0,0.3,0.1
		c0.1,0.1,0.3,0.2,0.5,0.3c0.2,0.1,0.5,0.2,0.8,0.3s0.6,0.1,1,0.1c0.2,0,0.4,0,0.6-0.1c0.2,0,0.3-0.1,0.5-0.2
		c0.1-0.1,0.2-0.2,0.3-0.3s0.1-0.3,0.1-0.5c0-0.2-0.1-0.4-0.2-0.5c-0.1-0.1-0.3-0.3-0.5-0.4c-0.2-0.1-0.4-0.2-0.7-0.3
		s-0.5-0.2-0.8-0.3c-0.3-0.1-0.5-0.2-0.8-0.4c-0.3-0.1-0.5-0.3-0.7-0.6c-0.2-0.2-0.4-0.5-0.5-0.8s-0.2-0.7-0.2-1.1
		c0-0.4,0.1-0.8,0.3-1.2c0.2-0.4,0.4-0.7,0.7-0.9c0.3-0.3,0.7-0.5,1.2-0.6c0.5-0.1,1-0.2,1.6-0.2c0.3,0,0.6,0,0.8,0.1
		s0.5,0.1,0.7,0.2s0.4,0.1,0.6,0.2c0.2,0.1,0.3,0.1,0.3,0.2c0.1,0.1,0.1,0.1,0.1,0.2c0,0.1,0,0.1,0.1,0.2c0,0.1,0,0.2,0,0.3
		c0,0.1,0,0.2,0,0.4c0,0.2,0,0.3,0,0.5c0,0.1,0,0.2-0.1,0.3c0,0.1-0.1,0.1-0.1,0.1c0,0-0.1,0-0.1,0c-0.1,0-0.2,0-0.3-0.1
		c-0.1-0.1-0.3-0.1-0.5-0.2c-0.2-0.1-0.4-0.2-0.7-0.2c-0.3-0.1-0.5-0.1-0.9-0.1c-0.2,0-0.4,0-0.6,0.1s-0.3,0.1-0.4,0.2
		s-0.2,0.2-0.2,0.3c-0.1,0.1-0.1,0.2-0.1,0.4c0,0.2,0.1,0.4,0.2,0.5s0.3,0.3,0.5,0.4s0.5,0.2,0.7,0.3c0.3,0.1,0.5,0.2,0.8,0.3
		c0.3,0.1,0.6,0.2,0.8,0.4s0.5,0.3,0.7,0.6s0.4,0.5,0.5,0.8C225.9,740.5,226,740.9,226,741.3z"/>
	<path class="st11" d="M237.1,739.2c0,0.8-0.1,1.5-0.3,2.2c-0.2,0.7-0.4,1.2-0.8,1.7s-0.8,0.8-1.3,1.1s-1.1,0.4-1.7,0.4
		c-0.3,0-0.5,0-0.7-0.1c-0.2-0.1-0.4-0.1-0.6-0.2c-0.2-0.1-0.4-0.2-0.6-0.4s-0.4-0.3-0.6-0.6v4.3c0,0.1,0,0.1-0.1,0.2
		s-0.1,0.1-0.2,0.1c-0.1,0-0.2,0.1-0.4,0.1s-0.4,0-0.6,0s-0.5,0-0.6,0s-0.3,0-0.4-0.1c-0.1,0-0.2-0.1-0.2-0.1s-0.1-0.1-0.1-0.2
		v-12.8c0-0.1,0-0.1,0.1-0.2c0-0.1,0.1-0.1,0.2-0.1s0.2-0.1,0.3-0.1c0.1,0,0.3,0,0.5,0c0.2,0,0.4,0,0.5,0c0.1,0,0.3,0,0.3,0.1
		s0.1,0.1,0.2,0.1c0,0.1,0.1,0.1,0.1,0.2v1.1c0.3-0.3,0.5-0.5,0.8-0.7c0.3-0.2,0.5-0.4,0.8-0.5c0.3-0.1,0.5-0.2,0.8-0.3
		s0.6-0.1,0.9-0.1c0.7,0,1.2,0.1,1.7,0.4c0.5,0.3,0.9,0.6,1.2,1.1c0.3,0.5,0.5,1,0.7,1.6C237.1,737.8,237.1,738.5,237.1,739.2z
		 M234.4,739.4c0-0.4,0-0.8-0.1-1.1c-0.1-0.4-0.2-0.7-0.3-1s-0.3-0.5-0.6-0.7c-0.2-0.2-0.5-0.3-0.9-0.3c-0.2,0-0.3,0-0.5,0.1
		c-0.2,0.1-0.3,0.1-0.5,0.3c-0.2,0.1-0.4,0.3-0.5,0.5s-0.4,0.4-0.6,0.7v3c0.4,0.5,0.7,0.8,1,1.1c0.3,0.3,0.7,0.4,1,0.4
		c0.3,0,0.6-0.1,0.9-0.3c0.2-0.2,0.4-0.4,0.6-0.7c0.2-0.3,0.3-0.6,0.3-0.9C234.4,740.1,234.4,739.7,234.4,739.4z"/>
	<path class="st11" d="M247.6,739c0,0.3-0.1,0.5-0.2,0.7c-0.1,0.2-0.3,0.2-0.6,0.2h-5.6c0,0.4,0,0.7,0.1,1.1
		c0.1,0.3,0.2,0.6,0.4,0.8c0.2,0.2,0.5,0.4,0.8,0.5c0.3,0.1,0.7,0.2,1.1,0.2c0.5,0,0.8,0,1.2-0.1c0.3-0.1,0.6-0.1,0.9-0.2
		c0.2-0.1,0.5-0.2,0.6-0.2c0.2-0.1,0.3-0.1,0.4-0.1c0.1,0,0.1,0,0.2,0c0,0,0.1,0.1,0.1,0.1s0,0.1,0.1,0.3c0,0.1,0,0.3,0,0.4
		c0,0.2,0,0.3,0,0.4c0,0.1,0,0.2,0,0.3s0,0.1-0.1,0.2c0,0.1-0.1,0.1-0.1,0.1c0,0-0.2,0.1-0.4,0.2s-0.5,0.2-0.8,0.2
		c-0.3,0.1-0.7,0.1-1.1,0.2c-0.4,0.1-0.8,0.1-1.3,0.1c-0.8,0-1.5-0.1-2.1-0.3s-1.1-0.5-1.5-0.9s-0.7-0.9-0.9-1.6
		c-0.2-0.6-0.3-1.4-0.3-2.2c0-0.8,0.1-1.5,0.3-2.2c0.2-0.7,0.5-1.2,0.9-1.7c0.4-0.5,0.9-0.8,1.5-1s1.2-0.4,2-0.4
		c0.8,0,1.4,0.1,2,0.3c0.5,0.2,1,0.5,1.3,0.9c0.3,0.4,0.6,0.9,0.8,1.4s0.2,1.1,0.2,1.8V739z M245.1,738.3c0-0.7-0.1-1.3-0.4-1.7
		c-0.3-0.4-0.8-0.6-1.4-0.6c-0.3,0-0.6,0.1-0.9,0.2c-0.2,0.1-0.4,0.3-0.6,0.5c-0.2,0.2-0.3,0.5-0.4,0.7c-0.1,0.3-0.1,0.6-0.1,0.9
		H245.1z"/>
	<path class="st11" d="M256.7,742.4c0,0.2,0,0.3,0,0.4c0,0.1,0,0.2,0,0.3c0,0.1,0,0.1-0.1,0.2c0,0.1-0.1,0.1-0.2,0.2
		c-0.1,0.1-0.2,0.2-0.4,0.3c-0.2,0.1-0.4,0.2-0.7,0.3c-0.3,0.1-0.5,0.2-0.8,0.2c-0.3,0.1-0.6,0.1-0.9,0.1c-0.7,0-1.3-0.1-1.9-0.3
		c-0.5-0.2-1-0.5-1.4-1c-0.4-0.4-0.6-0.9-0.8-1.6c-0.2-0.6-0.3-1.3-0.3-2.1c0-0.9,0.1-1.7,0.3-2.4c0.2-0.7,0.5-1.2,1-1.7
		s0.9-0.8,1.5-1c0.6-0.2,1.2-0.3,1.8-0.3c0.3,0,0.5,0,0.8,0.1c0.3,0,0.5,0.1,0.7,0.2c0.2,0.1,0.4,0.2,0.6,0.3
		c0.2,0.1,0.3,0.2,0.4,0.3c0.1,0.1,0.1,0.1,0.2,0.2c0,0.1,0.1,0.1,0.1,0.2c0,0.1,0,0.2,0,0.3c0,0.1,0,0.3,0,0.4c0,0.4,0,0.7-0.1,0.8
		c-0.1,0.2-0.2,0.2-0.3,0.2c-0.1,0-0.2,0-0.4-0.1s-0.3-0.2-0.5-0.3s-0.4-0.2-0.6-0.3s-0.5-0.1-0.9-0.1c-0.7,0-1.2,0.3-1.5,0.8
		c-0.4,0.5-0.5,1.3-0.5,2.3c0,0.5,0,0.9,0.1,1.3s0.2,0.7,0.4,0.9c0.2,0.3,0.4,0.4,0.7,0.6c0.3,0.1,0.6,0.2,0.9,0.2
		c0.4,0,0.7-0.1,0.9-0.2c0.3-0.1,0.5-0.2,0.7-0.4s0.4-0.2,0.5-0.4c0.1-0.1,0.2-0.2,0.3-0.2c0.1,0,0.1,0,0.2,0.1c0,0,0.1,0.1,0.1,0.2
		c0,0.1,0,0.2,0.1,0.4S256.7,742.2,256.7,742.4z"/>
	<path class="st11" d="M261.3,731.6c0,0.5-0.1,0.9-0.3,1.1c-0.2,0.2-0.6,0.3-1.2,0.3c-0.6,0-1-0.1-1.2-0.3s-0.3-0.5-0.3-1
		c0-0.5,0.1-0.9,0.3-1.1c0.2-0.2,0.6-0.3,1.2-0.3c0.6,0,1,0.1,1.2,0.3C261.2,730.8,261.3,731.1,261.3,731.6z M261.1,743.9
		c0,0.1,0,0.1-0.1,0.2c0,0.1-0.1,0.1-0.2,0.1c-0.1,0-0.2,0.1-0.4,0.1c-0.2,0-0.4,0-0.6,0s-0.5,0-0.6,0c-0.2,0-0.3,0-0.4-0.1
		s-0.2-0.1-0.2-0.1c0-0.1-0.1-0.1-0.1-0.2v-9.1c0-0.1,0-0.1,0.1-0.2c0-0.1,0.1-0.1,0.2-0.1c0.1,0,0.2-0.1,0.4-0.1c0.2,0,0.4,0,0.6,0
		s0.5,0,0.6,0c0.2,0,0.3,0,0.4,0.1c0.1,0,0.2,0.1,0.2,0.1c0,0.1,0.1,0.1,0.1,0.2V743.9z"/>
	<path class="st11" d="M271.5,743.9c0,0.1,0,0.2-0.1,0.2s-0.2,0.1-0.3,0.1c-0.1,0-0.4,0-0.7,0c-0.3,0-0.5,0-0.7,0
		c-0.1,0-0.2-0.1-0.3-0.1s-0.1-0.1-0.1-0.2v-0.7c-0.4,0.4-0.8,0.7-1.3,0.9c-0.5,0.2-1,0.3-1.6,0.3c-0.5,0-0.9-0.1-1.3-0.2
		c-0.4-0.1-0.8-0.3-1.1-0.6c-0.3-0.3-0.5-0.6-0.7-0.9s-0.2-0.8-0.2-1.3c0-0.5,0.1-1,0.3-1.4c0.2-0.4,0.5-0.7,0.9-1
		c0.4-0.3,0.9-0.4,1.5-0.6s1.3-0.2,2.1-0.2h0.9v-0.6c0-0.3,0-0.5-0.1-0.8c-0.1-0.2-0.2-0.4-0.3-0.5c-0.1-0.1-0.3-0.2-0.5-0.3
		s-0.5-0.1-0.8-0.1c-0.4,0-0.8,0-1.2,0.1c-0.3,0.1-0.6,0.2-0.9,0.3c-0.3,0.1-0.5,0.2-0.7,0.3c-0.2,0.1-0.3,0.1-0.4,0.1
		c-0.1,0-0.1,0-0.2-0.1c-0.1,0-0.1-0.1-0.1-0.2c0-0.1-0.1-0.2-0.1-0.3s0-0.3,0-0.4c0-0.2,0-0.4,0.1-0.5s0.1-0.2,0.2-0.3
		c0.1-0.1,0.3-0.2,0.5-0.3c0.2-0.1,0.5-0.2,0.8-0.3c0.3-0.1,0.7-0.2,1.1-0.3c0.4-0.1,0.8-0.1,1.2-0.1c0.7,0,1.3,0.1,1.8,0.2
		c0.5,0.1,0.9,0.4,1.3,0.6c0.3,0.3,0.6,0.7,0.7,1.1s0.2,1,0.2,1.6V743.9z M269,740h-1c-0.4,0-0.8,0-1.1,0.1s-0.5,0.2-0.7,0.3
		s-0.3,0.3-0.4,0.4c-0.1,0.2-0.1,0.4-0.1,0.6c0,0.4,0.1,0.7,0.4,0.9c0.2,0.2,0.6,0.3,1,0.3c0.4,0,0.7-0.1,1-0.3s0.6-0.5,0.9-0.8V740
		z"/>
	<path class="st11" d="M276.6,743.9c0,0.1,0,0.1-0.1,0.2c0,0.1-0.1,0.1-0.2,0.1c-0.1,0-0.2,0.1-0.4,0.1c-0.2,0-0.4,0-0.6,0
		s-0.5,0-0.6,0c-0.2,0-0.3,0-0.4-0.1s-0.2-0.1-0.2-0.1c0-0.1-0.1-0.1-0.1-0.2v-13.5c0-0.1,0-0.1,0.1-0.2c0-0.1,0.1-0.1,0.2-0.1
		c0.1,0,0.2-0.1,0.4-0.1c0.2,0,0.4,0,0.6,0s0.5,0,0.6,0c0.2,0,0.3,0,0.4,0.1c0.1,0,0.2,0.1,0.2,0.1c0,0.1,0.1,0.1,0.1,0.2V743.9z"/>
	<path class="st11" d="M282,731.6c0,0.5-0.1,0.9-0.3,1.1c-0.2,0.2-0.6,0.3-1.2,0.3c-0.6,0-1-0.1-1.2-0.3s-0.3-0.5-0.3-1
		c0-0.5,0.1-0.9,0.3-1.1c0.2-0.2,0.6-0.3,1.2-0.3c0.6,0,1,0.1,1.2,0.3C281.9,730.8,282,731.1,282,731.6z M281.8,743.9
		c0,0.1,0,0.1-0.1,0.2c0,0.1-0.1,0.1-0.2,0.1c-0.1,0-0.2,0.1-0.4,0.1c-0.2,0-0.4,0-0.6,0s-0.5,0-0.6,0c-0.2,0-0.3,0-0.4-0.1
		s-0.2-0.1-0.2-0.1c0-0.1-0.1-0.1-0.1-0.2v-9.1c0-0.1,0-0.1,0.1-0.2c0-0.1,0.1-0.1,0.2-0.1c0.1,0,0.2-0.1,0.4-0.1c0.2,0,0.4,0,0.6,0
		s0.5,0,0.6,0c0.2,0,0.3,0,0.4,0.1c0.1,0,0.2,0.1,0.2,0.1c0,0.1,0.1,0.1,0.1,0.2V743.9z"/>
	<path class="st11" d="M290.8,741.3c0,0.5-0.1,1-0.3,1.4c-0.2,0.4-0.5,0.7-0.8,1c-0.4,0.3-0.8,0.5-1.3,0.6c-0.5,0.1-1,0.2-1.6,0.2
		c-0.3,0-0.7,0-1-0.1c-0.3-0.1-0.6-0.1-0.8-0.2c-0.2-0.1-0.5-0.2-0.6-0.2s-0.3-0.2-0.4-0.2c-0.1-0.1-0.1-0.2-0.2-0.3
		c0-0.2-0.1-0.4-0.1-0.7c0-0.2,0-0.4,0-0.5c0-0.1,0-0.2,0.1-0.3c0-0.1,0.1-0.1,0.1-0.1c0,0,0.1,0,0.2,0c0.1,0,0.2,0,0.3,0.1
		c0.1,0.1,0.3,0.2,0.5,0.3c0.2,0.1,0.5,0.2,0.8,0.3s0.6,0.1,1,0.1c0.2,0,0.4,0,0.6-0.1c0.2,0,0.3-0.1,0.5-0.2
		c0.1-0.1,0.2-0.2,0.3-0.3s0.1-0.3,0.1-0.5c0-0.2-0.1-0.4-0.2-0.5c-0.1-0.1-0.3-0.3-0.5-0.4c-0.2-0.1-0.4-0.2-0.7-0.3
		s-0.5-0.2-0.8-0.3c-0.3-0.1-0.5-0.2-0.8-0.4c-0.3-0.1-0.5-0.3-0.7-0.6c-0.2-0.2-0.4-0.5-0.5-0.8s-0.2-0.7-0.2-1.1
		c0-0.4,0.1-0.8,0.3-1.2c0.2-0.4,0.4-0.7,0.7-0.9c0.3-0.3,0.7-0.5,1.2-0.6c0.5-0.1,1-0.2,1.6-0.2c0.3,0,0.6,0,0.8,0.1
		s0.5,0.1,0.7,0.2s0.4,0.1,0.6,0.2c0.2,0.1,0.3,0.1,0.3,0.2c0.1,0.1,0.1,0.1,0.1,0.2c0,0.1,0,0.1,0.1,0.2c0,0.1,0,0.2,0,0.3
		c0,0.1,0,0.2,0,0.4c0,0.2,0,0.3,0,0.5c0,0.1,0,0.2-0.1,0.3c0,0.1-0.1,0.1-0.1,0.1c0,0-0.1,0-0.1,0c-0.1,0-0.2,0-0.3-0.1
		c-0.1-0.1-0.3-0.1-0.5-0.2c-0.2-0.1-0.4-0.2-0.7-0.2c-0.3-0.1-0.5-0.1-0.9-0.1c-0.2,0-0.4,0-0.6,0.1s-0.3,0.1-0.4,0.2
		s-0.2,0.2-0.2,0.3c-0.1,0.1-0.1,0.2-0.1,0.4c0,0.2,0.1,0.4,0.2,0.5s0.3,0.3,0.5,0.4s0.5,0.2,0.7,0.3c0.3,0.1,0.5,0.2,0.8,0.3
		c0.3,0.1,0.6,0.2,0.8,0.4s0.5,0.3,0.7,0.6s0.4,0.5,0.5,0.8C290.8,740.5,290.8,740.9,290.8,741.3z"/>
	<path class="st11" d="M297.9,743c0,0.3,0,0.5-0.1,0.7c0,0.2-0.1,0.3-0.1,0.3c-0.1,0.1-0.2,0.1-0.3,0.2c-0.1,0.1-0.3,0.1-0.4,0.1
		c-0.2,0-0.3,0.1-0.5,0.1c-0.2,0-0.4,0-0.6,0c-0.5,0-1-0.1-1.3-0.2c-0.4-0.1-0.7-0.3-0.9-0.6c-0.2-0.3-0.4-0.6-0.5-1
		s-0.2-0.9-0.2-1.5v-4.7h-1.1c-0.1,0-0.2-0.1-0.3-0.2c-0.1-0.2-0.1-0.4-0.1-0.8c0-0.2,0-0.4,0-0.5c0-0.1,0-0.2,0.1-0.3
		c0-0.1,0.1-0.1,0.1-0.2c0.1,0,0.1-0.1,0.2-0.1h1.1v-2c0-0.1,0-0.1,0.1-0.2s0.1-0.1,0.2-0.1c0.1,0,0.2-0.1,0.4-0.1
		c0.2,0,0.4,0,0.6,0c0.3,0,0.5,0,0.6,0c0.2,0,0.3,0,0.4,0.1c0.1,0,0.2,0.1,0.2,0.1s0.1,0.1,0.1,0.2v2h2c0.1,0,0.1,0,0.2,0.1
		c0.1,0,0.1,0.1,0.1,0.2c0,0.1,0.1,0.2,0.1,0.3c0,0.1,0,0.3,0,0.5c0,0.4,0,0.6-0.1,0.8c-0.1,0.2-0.2,0.2-0.3,0.2h-2v4.3
		c0,0.5,0.1,0.9,0.2,1.1c0.2,0.3,0.4,0.4,0.8,0.4c0.1,0,0.3,0,0.4,0c0.1,0,0.2-0.1,0.3-0.1c0.1,0,0.2-0.1,0.2-0.1c0.1,0,0.1,0,0.2,0
		c0,0,0.1,0,0.1,0c0,0,0.1,0.1,0.1,0.1c0,0.1,0,0.2,0.1,0.3C297.9,742.6,297.9,742.8,297.9,743z"/>
	<path class="st11" d="M307.4,743.9c0,0.1,0,0.2-0.1,0.2s-0.2,0.1-0.3,0.1c-0.1,0-0.4,0-0.7,0c-0.3,0-0.5,0-0.7,0
		c-0.1,0-0.2-0.1-0.3-0.1s-0.1-0.1-0.1-0.2v-0.7c-0.4,0.4-0.8,0.7-1.3,0.9c-0.5,0.2-1,0.3-1.6,0.3c-0.5,0-0.9-0.1-1.3-0.2
		c-0.4-0.1-0.8-0.3-1.1-0.6c-0.3-0.3-0.5-0.6-0.7-0.9s-0.2-0.8-0.2-1.3c0-0.5,0.1-1,0.3-1.4c0.2-0.4,0.5-0.7,0.9-1
		c0.4-0.3,0.9-0.4,1.5-0.6s1.3-0.2,2.1-0.2h0.9v-0.6c0-0.3,0-0.5-0.1-0.8c-0.1-0.2-0.2-0.4-0.3-0.5c-0.1-0.1-0.3-0.2-0.5-0.3
		s-0.5-0.1-0.8-0.1c-0.4,0-0.8,0-1.2,0.1c-0.3,0.1-0.6,0.2-0.9,0.3c-0.3,0.1-0.5,0.2-0.7,0.3c-0.2,0.1-0.3,0.1-0.4,0.1
		c-0.1,0-0.1,0-0.2-0.1c-0.1,0-0.1-0.1-0.1-0.2c0-0.1-0.1-0.2-0.1-0.3s0-0.3,0-0.4c0-0.2,0-0.4,0.1-0.5s0.1-0.2,0.2-0.3
		c0.1-0.1,0.3-0.2,0.5-0.3c0.2-0.1,0.5-0.2,0.8-0.3c0.3-0.1,0.7-0.2,1.1-0.3c0.4-0.1,0.8-0.1,1.2-0.1c0.7,0,1.3,0.1,1.8,0.2
		c0.5,0.1,0.9,0.4,1.3,0.6c0.3,0.3,0.6,0.7,0.7,1.1s0.2,1,0.2,1.6V743.9z M304.9,740h-1c-0.4,0-0.8,0-1.1,0.1s-0.5,0.2-0.7,0.3
		s-0.3,0.3-0.4,0.4c-0.1,0.2-0.1,0.4-0.1,0.6c0,0.4,0.1,0.7,0.4,0.9c0.2,0.2,0.6,0.3,1,0.3c0.4,0,0.7-0.1,1-0.3s0.6-0.5,0.9-0.8V740
		z"/>
	<path class="st11" d="M323.2,739c0,0.3-0.1,0.5-0.2,0.7c-0.1,0.2-0.3,0.2-0.6,0.2h-5.6c0,0.4,0,0.7,0.1,1.1
		c0.1,0.3,0.2,0.6,0.4,0.8c0.2,0.2,0.5,0.4,0.8,0.5c0.3,0.1,0.7,0.2,1.1,0.2c0.5,0,0.8,0,1.2-0.1c0.3-0.1,0.6-0.1,0.9-0.2
		c0.2-0.1,0.5-0.2,0.6-0.2c0.2-0.1,0.3-0.1,0.4-0.1c0.1,0,0.1,0,0.2,0c0,0,0.1,0.1,0.1,0.1s0,0.1,0.1,0.3c0,0.1,0,0.3,0,0.4
		c0,0.2,0,0.3,0,0.4c0,0.1,0,0.2,0,0.3s0,0.1-0.1,0.2c0,0.1-0.1,0.1-0.1,0.1c0,0-0.2,0.1-0.4,0.2s-0.5,0.2-0.8,0.2
		c-0.3,0.1-0.7,0.1-1.1,0.2c-0.4,0.1-0.8,0.1-1.3,0.1c-0.8,0-1.5-0.1-2.1-0.3s-1.1-0.5-1.5-0.9s-0.7-0.9-0.9-1.6
		c-0.2-0.6-0.3-1.4-0.3-2.2c0-0.8,0.1-1.5,0.3-2.2c0.2-0.7,0.5-1.2,0.9-1.7c0.4-0.5,0.9-0.8,1.5-1s1.2-0.4,2-0.4
		c0.8,0,1.4,0.1,2,0.3c0.5,0.2,1,0.5,1.3,0.9c0.3,0.4,0.6,0.9,0.8,1.4s0.2,1.1,0.2,1.8V739z M320.7,738.3c0-0.7-0.1-1.3-0.4-1.7
		c-0.3-0.4-0.8-0.6-1.4-0.6c-0.3,0-0.6,0.1-0.9,0.2c-0.2,0.1-0.4,0.3-0.6,0.5c-0.2,0.2-0.3,0.5-0.4,0.7c-0.1,0.3-0.1,0.6-0.1,0.9
		H320.7z"/>
	<path class="st11" d="M334,743.9c0,0.1,0,0.1-0.1,0.2c0,0.1-0.1,0.1-0.2,0.1s-0.2,0.1-0.4,0.1c-0.2,0-0.4,0-0.6,0
		c-0.3,0-0.5,0-0.6,0c-0.2,0-0.3,0-0.4-0.1s-0.2-0.1-0.2-0.1c0-0.1-0.1-0.1-0.1-0.2v-5.2c0-0.4,0-0.8-0.1-1
		c-0.1-0.3-0.2-0.5-0.3-0.7c-0.1-0.2-0.3-0.3-0.5-0.4c-0.2-0.1-0.4-0.1-0.7-0.1c-0.3,0-0.7,0.1-1,0.4s-0.7,0.6-1,1v6.1
		c0,0.1,0,0.1-0.1,0.2c0,0.1-0.1,0.1-0.2,0.1c-0.1,0-0.2,0.1-0.4,0.1c-0.2,0-0.4,0-0.6,0s-0.5,0-0.6,0c-0.2,0-0.3,0-0.4-0.1
		s-0.2-0.1-0.2-0.1c0-0.1-0.1-0.1-0.1-0.2v-9.1c0-0.1,0-0.1,0.1-0.2c0-0.1,0.1-0.1,0.2-0.1s0.2-0.1,0.3-0.1c0.1,0,0.3,0,0.5,0
		c0.2,0,0.4,0,0.5,0c0.1,0,0.3,0,0.3,0.1c0.1,0,0.1,0.1,0.2,0.1c0,0.1,0.1,0.1,0.1,0.2v1.1c0.5-0.5,1-1,1.5-1.2
		c0.5-0.3,1.1-0.4,1.6-0.4c0.6,0,1.1,0.1,1.6,0.3s0.8,0.5,1,0.8c0.3,0.4,0.5,0.8,0.6,1.2c0.1,0.5,0.2,1,0.2,1.7V743.9z"/>
	<path class="st11" d="M350,743.9c0,0.1,0,0.1-0.1,0.2c0,0.1-0.1,0.1-0.2,0.1c-0.1,0-0.2,0.1-0.3,0.1c-0.1,0-0.3,0-0.5,0
		c-0.2,0-0.4,0-0.5,0s-0.2,0-0.3-0.1c-0.1,0-0.1-0.1-0.2-0.1c0-0.1-0.1-0.1-0.1-0.2v-1c-0.5,0.5-1,0.9-1.5,1.2s-1.1,0.4-1.7,0.4
		c-0.7,0-1.3-0.1-1.8-0.4c-0.5-0.3-0.9-0.6-1.2-1.1c-0.3-0.5-0.5-1-0.7-1.6c-0.1-0.6-0.2-1.3-0.2-1.9c0-0.8,0.1-1.5,0.3-2.2
		c0.2-0.6,0.4-1.2,0.8-1.7s0.8-0.8,1.3-1.1s1.1-0.4,1.7-0.4c0.5,0,1,0.1,1.4,0.3c0.4,0.2,0.8,0.5,1.2,0.9v-5c0-0.1,0-0.1,0.1-0.2
		c0-0.1,0.1-0.1,0.2-0.1c0.1,0,0.2-0.1,0.4-0.1s0.4,0,0.6,0s0.5,0,0.6,0s0.3,0,0.4,0.1c0.1,0,0.2,0.1,0.2,0.1s0.1,0.1,0.1,0.2V743.9
		z M347.4,737.8c-0.4-0.5-0.7-0.8-1.1-1.1c-0.3-0.2-0.7-0.4-1.1-0.4c-0.3,0-0.6,0.1-0.9,0.3c-0.2,0.2-0.4,0.4-0.6,0.7
		c-0.1,0.3-0.3,0.6-0.3,0.9c-0.1,0.3-0.1,0.7-0.1,1.1c0,0.4,0,0.8,0.1,1.1s0.2,0.7,0.3,1c0.1,0.3,0.3,0.5,0.6,0.7
		c0.2,0.2,0.5,0.3,0.9,0.3c0.2,0,0.4,0,0.5-0.1c0.2-0.1,0.3-0.1,0.5-0.3c0.2-0.1,0.4-0.3,0.5-0.5c0.2-0.2,0.4-0.4,0.6-0.7V737.8z"/>
	<path class="st11" d="M361,739c0,0.3-0.1,0.5-0.2,0.7c-0.1,0.2-0.3,0.2-0.6,0.2h-5.6c0,0.4,0,0.7,0.1,1.1c0.1,0.3,0.2,0.6,0.4,0.8
		c0.2,0.2,0.5,0.4,0.8,0.5c0.3,0.1,0.7,0.2,1.1,0.2c0.5,0,0.8,0,1.2-0.1c0.3-0.1,0.6-0.1,0.9-0.2c0.2-0.1,0.5-0.2,0.6-0.2
		c0.2-0.1,0.3-0.1,0.4-0.1c0.1,0,0.1,0,0.2,0c0,0,0.1,0.1,0.1,0.1s0,0.1,0.1,0.3c0,0.1,0,0.3,0,0.4c0,0.2,0,0.3,0,0.4
		c0,0.1,0,0.2,0,0.3s0,0.1-0.1,0.2c0,0.1-0.1,0.1-0.1,0.1c0,0-0.2,0.1-0.4,0.2s-0.5,0.2-0.8,0.2c-0.3,0.1-0.7,0.1-1.1,0.2
		c-0.4,0.1-0.8,0.1-1.3,0.1c-0.8,0-1.5-0.1-2.1-0.3s-1.1-0.5-1.5-0.9s-0.7-0.9-0.9-1.6c-0.2-0.6-0.3-1.4-0.3-2.2
		c0-0.8,0.1-1.5,0.3-2.2c0.2-0.7,0.5-1.2,0.9-1.7c0.4-0.5,0.9-0.8,1.5-1s1.2-0.4,2-0.4c0.8,0,1.4,0.1,2,0.3c0.5,0.2,1,0.5,1.3,0.9
		c0.3,0.4,0.6,0.9,0.8,1.4s0.2,1.1,0.2,1.8V739z M358.5,738.3c0-0.7-0.1-1.3-0.4-1.7c-0.3-0.4-0.8-0.6-1.4-0.6
		c-0.3,0-0.6,0.1-0.9,0.2c-0.2,0.1-0.4,0.3-0.6,0.5c-0.2,0.2-0.3,0.5-0.4,0.7c-0.1,0.3-0.1,0.6-0.1,0.9H358.5z"/>
	<path class="st11" d="M369.6,741.3c0,0.5-0.1,1-0.3,1.4c-0.2,0.4-0.5,0.7-0.8,1c-0.4,0.3-0.8,0.5-1.3,0.6c-0.5,0.1-1,0.2-1.6,0.2
		c-0.3,0-0.7,0-1-0.1c-0.3-0.1-0.6-0.1-0.8-0.2c-0.2-0.1-0.5-0.2-0.6-0.2s-0.3-0.2-0.4-0.2c-0.1-0.1-0.1-0.2-0.2-0.3
		c0-0.2-0.1-0.4-0.1-0.7c0-0.2,0-0.4,0-0.5c0-0.1,0-0.2,0.1-0.3c0-0.1,0.1-0.1,0.1-0.1c0,0,0.1,0,0.2,0c0.1,0,0.2,0,0.3,0.1
		c0.1,0.1,0.3,0.2,0.5,0.3c0.2,0.1,0.5,0.2,0.8,0.3s0.6,0.1,1,0.1c0.2,0,0.4,0,0.6-0.1c0.2,0,0.3-0.1,0.5-0.2
		c0.1-0.1,0.2-0.2,0.3-0.3s0.1-0.3,0.1-0.5c0-0.2-0.1-0.4-0.2-0.5c-0.1-0.1-0.3-0.3-0.5-0.4c-0.2-0.1-0.4-0.2-0.7-0.3
		s-0.5-0.2-0.8-0.3c-0.3-0.1-0.5-0.2-0.8-0.4c-0.3-0.1-0.5-0.3-0.7-0.6c-0.2-0.2-0.4-0.5-0.5-0.8s-0.2-0.7-0.2-1.1
		c0-0.4,0.1-0.8,0.3-1.2c0.2-0.4,0.4-0.7,0.7-0.9c0.3-0.3,0.7-0.5,1.2-0.6c0.5-0.1,1-0.2,1.6-0.2c0.3,0,0.6,0,0.8,0.1
		s0.5,0.1,0.7,0.2s0.4,0.1,0.6,0.2c0.2,0.1,0.3,0.1,0.3,0.2c0.1,0.1,0.1,0.1,0.1,0.2c0,0.1,0,0.1,0.1,0.2c0,0.1,0,0.2,0,0.3
		c0,0.1,0,0.2,0,0.4c0,0.2,0,0.3,0,0.5c0,0.1,0,0.2-0.1,0.3c0,0.1-0.1,0.1-0.1,0.1c0,0-0.1,0-0.1,0c-0.1,0-0.2,0-0.3-0.1
		c-0.1-0.1-0.3-0.1-0.5-0.2c-0.2-0.1-0.4-0.2-0.7-0.2c-0.3-0.1-0.5-0.1-0.9-0.1c-0.2,0-0.4,0-0.6,0.1s-0.3,0.1-0.4,0.2
		s-0.2,0.2-0.2,0.3c-0.1,0.1-0.1,0.2-0.1,0.4c0,0.2,0.1,0.4,0.2,0.5s0.3,0.3,0.5,0.4s0.5,0.2,0.7,0.3c0.3,0.1,0.5,0.2,0.8,0.3
		c0.3,0.1,0.6,0.2,0.8,0.4s0.5,0.3,0.7,0.6s0.4,0.5,0.5,0.8C369.5,740.5,369.6,740.9,369.6,741.3z"/>
	<path class="st11" d="M379.3,743.9c0,0.1,0,0.2-0.1,0.2s-0.2,0.1-0.3,0.1c-0.1,0-0.4,0-0.7,0c-0.3,0-0.5,0-0.7,0
		c-0.1,0-0.2-0.1-0.3-0.1s-0.1-0.1-0.1-0.2v-0.7c-0.4,0.4-0.8,0.7-1.3,0.9c-0.5,0.2-1,0.3-1.6,0.3c-0.5,0-0.9-0.1-1.3-0.2
		c-0.4-0.1-0.8-0.3-1.1-0.6c-0.3-0.3-0.5-0.6-0.7-0.9s-0.2-0.8-0.2-1.3c0-0.5,0.1-1,0.3-1.4c0.2-0.4,0.5-0.7,0.9-1
		c0.4-0.3,0.9-0.4,1.5-0.6s1.3-0.2,2.1-0.2h0.9v-0.6c0-0.3,0-0.5-0.1-0.8c-0.1-0.2-0.2-0.4-0.3-0.5c-0.1-0.1-0.3-0.2-0.5-0.3
		s-0.5-0.1-0.8-0.1c-0.4,0-0.8,0-1.2,0.1c-0.3,0.1-0.6,0.2-0.9,0.3c-0.3,0.1-0.5,0.2-0.7,0.3c-0.2,0.1-0.3,0.1-0.4,0.1
		c-0.1,0-0.1,0-0.2-0.1c-0.1,0-0.1-0.1-0.1-0.2c0-0.1-0.1-0.2-0.1-0.3s0-0.3,0-0.4c0-0.2,0-0.4,0.1-0.5s0.1-0.2,0.2-0.3
		c0.1-0.1,0.3-0.2,0.5-0.3c0.2-0.1,0.5-0.2,0.8-0.3c0.3-0.1,0.7-0.2,1.1-0.3c0.4-0.1,0.8-0.1,1.2-0.1c0.7,0,1.3,0.1,1.8,0.2
		c0.5,0.1,0.9,0.4,1.3,0.6c0.3,0.3,0.6,0.7,0.7,1.1s0.2,1,0.2,1.6V743.9z M376.8,740h-1c-0.4,0-0.8,0-1.1,0.1s-0.5,0.2-0.7,0.3
		s-0.3,0.3-0.4,0.4c-0.1,0.2-0.1,0.4-0.1,0.6c0,0.4,0.1,0.7,0.4,0.9c0.2,0.2,0.6,0.3,1,0.3c0.4,0,0.7-0.1,1-0.3s0.6-0.5,0.9-0.8V740
		z"/>
	<path class="st11" d="M387.8,735.6c0,0.2,0,0.4,0,0.6s0,0.3-0.1,0.4s-0.1,0.2-0.1,0.2s-0.1,0.1-0.2,0.1c-0.1,0-0.1,0-0.2,0
		c-0.1,0-0.1,0-0.2-0.1c-0.1,0-0.2-0.1-0.3-0.1c-0.1,0-0.2,0-0.3,0c-0.1,0-0.3,0-0.4,0.1c-0.1,0.1-0.3,0.1-0.4,0.3
		c-0.2,0.1-0.3,0.3-0.5,0.5c-0.2,0.2-0.3,0.5-0.5,0.8v5.7c0,0.1,0,0.1-0.1,0.2c0,0.1-0.1,0.1-0.2,0.1c-0.1,0-0.2,0.1-0.4,0.1
		c-0.2,0-0.4,0-0.6,0s-0.5,0-0.6,0c-0.2,0-0.3,0-0.4-0.1s-0.2-0.1-0.2-0.1c0-0.1-0.1-0.1-0.1-0.2v-9.1c0-0.1,0-0.1,0.1-0.2
		c0-0.1,0.1-0.1,0.2-0.1s0.2-0.1,0.3-0.1c0.1,0,0.3,0,0.5,0c0.2,0,0.4,0,0.5,0c0.1,0,0.3,0,0.3,0.1c0.1,0,0.1,0.1,0.2,0.1
		c0,0.1,0.1,0.1,0.1,0.2v1.1c0.2-0.3,0.5-0.6,0.7-0.8c0.2-0.2,0.4-0.4,0.6-0.5s0.4-0.2,0.6-0.3c0.2-0.1,0.4-0.1,0.6-0.1
		c0.1,0,0.2,0,0.3,0c0.1,0,0.2,0,0.3,0.1c0.1,0,0.2,0.1,0.3,0.1c0.1,0,0.1,0.1,0.2,0.1c0,0,0.1,0.1,0.1,0.1s0,0.1,0,0.2
		c0,0.1,0,0.2,0,0.3S387.8,735.3,387.8,735.6z"/>
	<path class="st11" d="M395.2,735.6c0,0.2,0,0.4,0,0.6s0,0.3-0.1,0.4s-0.1,0.2-0.1,0.2s-0.1,0.1-0.2,0.1c-0.1,0-0.1,0-0.2,0
		c-0.1,0-0.1,0-0.2-0.1c-0.1,0-0.2-0.1-0.3-0.1c-0.1,0-0.2,0-0.3,0c-0.1,0-0.3,0-0.4,0.1c-0.1,0.1-0.3,0.1-0.4,0.3
		c-0.2,0.1-0.3,0.3-0.5,0.5s-0.3,0.5-0.5,0.8v5.7c0,0.1,0,0.1-0.1,0.2c0,0.1-0.1,0.1-0.2,0.1c-0.1,0-0.2,0.1-0.4,0.1
		c-0.2,0-0.4,0-0.6,0s-0.5,0-0.6,0c-0.2,0-0.3,0-0.4-0.1s-0.2-0.1-0.2-0.1c0-0.1-0.1-0.1-0.1-0.2v-9.1c0-0.1,0-0.1,0.1-0.2
		c0-0.1,0.1-0.1,0.2-0.1c0.1,0,0.2-0.1,0.3-0.1c0.1,0,0.3,0,0.5,0c0.2,0,0.4,0,0.5,0c0.1,0,0.3,0,0.3,0.1c0.1,0,0.1,0.1,0.2,0.1
		c0,0.1,0.1,0.1,0.1,0.2v1.1c0.2-0.3,0.5-0.6,0.7-0.8c0.2-0.2,0.4-0.4,0.6-0.5s0.4-0.2,0.6-0.3c0.2-0.1,0.4-0.1,0.6-0.1
		c0.1,0,0.2,0,0.3,0c0.1,0,0.2,0,0.3,0.1c0.1,0,0.2,0.1,0.3,0.1c0.1,0,0.1,0.1,0.2,0.1c0,0,0.1,0.1,0.1,0.1s0,0.1,0,0.2
		c0,0.1,0,0.2,0,0.3S395.2,735.3,395.2,735.6z"/>
	<path class="st11" d="M405.8,739.2c0,0.8-0.1,1.5-0.3,2.1s-0.5,1.2-0.9,1.7c-0.4,0.5-0.9,0.8-1.6,1.1s-1.4,0.4-2.2,0.4
		c-0.8,0-1.5-0.1-2.1-0.3s-1.1-0.6-1.5-1s-0.7-1-0.9-1.6s-0.3-1.3-0.3-2.2c0-0.8,0.1-1.5,0.3-2.1c0.2-0.6,0.5-1.2,0.9-1.7
		c0.4-0.5,0.9-0.8,1.6-1.1s1.4-0.4,2.2-0.4c0.8,0,1.5,0.1,2.1,0.3c0.6,0.2,1.1,0.5,1.5,1c0.4,0.4,0.7,1,0.9,1.6
		S405.8,738.4,405.8,739.2z M403.2,739.3c0-0.5,0-0.9-0.1-1.2c-0.1-0.4-0.2-0.7-0.4-1s-0.4-0.5-0.7-0.7c-0.3-0.2-0.6-0.2-1.1-0.2
		c-0.4,0-0.7,0.1-1,0.2c-0.3,0.1-0.5,0.3-0.7,0.6c-0.2,0.3-0.3,0.6-0.4,1c-0.1,0.4-0.1,0.8-0.1,1.3c0,0.5,0,0.9,0.1,1.2
		c0.1,0.4,0.2,0.7,0.4,1c0.2,0.3,0.4,0.5,0.7,0.7c0.3,0.2,0.6,0.2,1.1,0.2c0.4,0,0.7-0.1,1-0.2c0.3-0.1,0.5-0.3,0.7-0.6
		c0.2-0.3,0.3-0.6,0.4-1C403.1,740.2,403.2,739.8,403.2,739.3z"/>
	<path class="st11" d="M410.4,743.9c0,0.1,0,0.1-0.1,0.2c0,0.1-0.1,0.1-0.2,0.1c-0.1,0-0.2,0.1-0.4,0.1c-0.2,0-0.4,0-0.6,0
		s-0.5,0-0.6,0c-0.2,0-0.3,0-0.4-0.1s-0.2-0.1-0.2-0.1c0-0.1-0.1-0.1-0.1-0.2v-13.5c0-0.1,0-0.1,0.1-0.2c0-0.1,0.1-0.1,0.2-0.1
		c0.1,0,0.2-0.1,0.4-0.1c0.2,0,0.4,0,0.6,0s0.5,0,0.6,0c0.2,0,0.3,0,0.4,0.1c0.1,0,0.2,0.1,0.2,0.1c0,0.1,0.1,0.1,0.1,0.2V743.9z"/>
	<path class="st11" d="M415.6,743.9c0,0.1,0,0.1-0.1,0.2c0,0.1-0.1,0.1-0.2,0.1s-0.2,0.1-0.4,0.1c-0.2,0-0.4,0-0.6,0
		c-0.3,0-0.5,0-0.6,0c-0.2,0-0.3,0-0.4-0.1c-0.1,0-0.2-0.1-0.2-0.1c0-0.1-0.1-0.1-0.1-0.2v-13.5c0-0.1,0-0.1,0.1-0.2
		c0-0.1,0.1-0.1,0.2-0.1c0.1,0,0.2-0.1,0.4-0.1c0.2,0,0.4,0,0.6,0c0.3,0,0.5,0,0.6,0c0.2,0,0.3,0,0.4,0.1c0.1,0,0.2,0.1,0.2,0.1
		c0,0.1,0.1,0.1,0.1,0.2V743.9z"/>
	<path class="st11" d="M427.4,739.2c0,0.8-0.1,1.5-0.3,2.1s-0.5,1.2-0.9,1.7c-0.4,0.5-0.9,0.8-1.6,1.1s-1.4,0.4-2.2,0.4
		c-0.8,0-1.5-0.1-2.1-0.3s-1.1-0.6-1.5-1s-0.7-1-0.9-1.6s-0.3-1.3-0.3-2.2c0-0.8,0.1-1.5,0.3-2.1c0.2-0.6,0.5-1.2,0.9-1.7
		c0.4-0.5,0.9-0.8,1.6-1.1c0.6-0.3,1.4-0.4,2.2-0.4c0.8,0,1.5,0.1,2.1,0.3c0.6,0.2,1.1,0.5,1.5,1c0.4,0.4,0.7,1,0.9,1.6
		S427.4,738.4,427.4,739.2z M424.8,739.3c0-0.5,0-0.9-0.1-1.2c-0.1-0.4-0.2-0.7-0.4-1c-0.2-0.3-0.4-0.5-0.7-0.7s-0.6-0.2-1.1-0.2
		c-0.4,0-0.7,0.1-1,0.2c-0.3,0.1-0.5,0.3-0.7,0.6c-0.2,0.3-0.3,0.6-0.4,1c-0.1,0.4-0.1,0.8-0.1,1.3c0,0.5,0,0.9,0.1,1.2
		c0.1,0.4,0.2,0.7,0.4,1c0.2,0.3,0.4,0.5,0.7,0.7c0.3,0.2,0.6,0.2,1.1,0.2c0.4,0,0.7-0.1,1-0.2c0.3-0.1,0.5-0.3,0.7-0.6
		s0.3-0.6,0.4-1C424.7,740.2,424.8,739.8,424.8,739.3z"/>
	<path class="st11" d="M442.9,743.9c0,0.1,0,0.1-0.1,0.2c0,0.1-0.1,0.1-0.2,0.1c-0.1,0-0.2,0.1-0.3,0.1c-0.1,0-0.3,0-0.5,0
		c-0.2,0-0.4,0-0.5,0s-0.2,0-0.3-0.1c-0.1,0-0.1-0.1-0.2-0.1c0-0.1-0.1-0.1-0.1-0.2v-1c-0.5,0.5-1,0.9-1.5,1.2s-1.1,0.4-1.7,0.4
		c-0.7,0-1.3-0.1-1.8-0.4c-0.5-0.3-0.9-0.6-1.2-1.1c-0.3-0.5-0.5-1-0.7-1.6c-0.1-0.6-0.2-1.3-0.2-1.9c0-0.8,0.1-1.5,0.3-2.2
		c0.2-0.6,0.4-1.2,0.8-1.7c0.3-0.5,0.8-0.8,1.3-1.1c0.5-0.2,1.1-0.4,1.7-0.4c0.5,0,1,0.1,1.4,0.3c0.4,0.2,0.8,0.5,1.2,0.9v-5
		c0-0.1,0-0.1,0.1-0.2c0-0.1,0.1-0.1,0.2-0.1c0.1,0,0.2-0.1,0.4-0.1s0.4,0,0.6,0c0.3,0,0.5,0,0.6,0s0.3,0,0.4,0.1
		c0.1,0,0.2,0.1,0.2,0.1s0.1,0.1,0.1,0.2V743.9z M440.3,737.8c-0.4-0.5-0.7-0.8-1.1-1.1c-0.3-0.2-0.7-0.4-1.1-0.4
		c-0.3,0-0.6,0.1-0.9,0.3c-0.2,0.2-0.4,0.4-0.6,0.7c-0.1,0.3-0.3,0.6-0.3,0.9c-0.1,0.3-0.1,0.7-0.1,1.1c0,0.4,0,0.8,0.1,1.1
		s0.2,0.7,0.3,1c0.1,0.3,0.3,0.5,0.6,0.7c0.2,0.2,0.5,0.3,0.9,0.3c0.2,0,0.3,0,0.5-0.1c0.2-0.1,0.3-0.1,0.5-0.3
		c0.2-0.1,0.4-0.3,0.5-0.5c0.2-0.2,0.4-0.4,0.6-0.7V737.8z"/>
	<path class="st11" d="M453.9,739c0,0.3-0.1,0.5-0.2,0.7s-0.3,0.2-0.6,0.2h-5.6c0,0.4,0,0.7,0.1,1.1c0.1,0.3,0.2,0.6,0.4,0.8
		c0.2,0.2,0.5,0.4,0.8,0.5c0.3,0.1,0.7,0.2,1.1,0.2c0.5,0,0.8,0,1.2-0.1c0.3-0.1,0.6-0.1,0.9-0.2c0.3-0.1,0.5-0.2,0.6-0.2
		c0.2-0.1,0.3-0.1,0.4-0.1c0.1,0,0.1,0,0.2,0c0,0,0.1,0.1,0.1,0.1s0,0.1,0.1,0.3c0,0.1,0,0.3,0,0.4c0,0.2,0,0.3,0,0.4
		c0,0.1,0,0.2,0,0.3s0,0.1-0.1,0.2c0,0.1-0.1,0.1-0.1,0.1c0,0-0.2,0.1-0.4,0.2c-0.2,0.1-0.5,0.2-0.8,0.2c-0.3,0.1-0.7,0.1-1.1,0.2
		c-0.4,0.1-0.8,0.1-1.3,0.1c-0.8,0-1.5-0.1-2.1-0.3c-0.6-0.2-1.1-0.5-1.5-0.9s-0.7-0.9-0.9-1.6c-0.2-0.6-0.3-1.4-0.3-2.2
		c0-0.8,0.1-1.5,0.3-2.2c0.2-0.7,0.5-1.2,0.9-1.7c0.4-0.5,0.9-0.8,1.5-1c0.6-0.2,1.2-0.4,2-0.4c0.8,0,1.4,0.1,2,0.3s1,0.5,1.3,0.9
		c0.3,0.4,0.6,0.9,0.8,1.4s0.2,1.1,0.2,1.8V739z M451.4,738.3c0-0.7-0.1-1.3-0.4-1.7c-0.3-0.4-0.8-0.6-1.4-0.6
		c-0.3,0-0.6,0.1-0.9,0.2c-0.2,0.1-0.4,0.3-0.6,0.5c-0.2,0.2-0.3,0.5-0.4,0.7c-0.1,0.3-0.1,0.6-0.1,0.9H451.4z"/>
	<path class="st11" d="M468.8,740.3c0,0.7-0.1,1.3-0.4,1.8s-0.6,1-1.1,1.3c-0.4,0.4-1,0.6-1.6,0.8c-0.6,0.2-1.2,0.3-1.9,0.3
		c-0.5,0-0.9,0-1.3-0.1c-0.4-0.1-0.7-0.2-1-0.3c-0.3-0.1-0.6-0.2-0.8-0.3c-0.2-0.1-0.3-0.2-0.4-0.3c-0.1-0.1-0.2-0.2-0.2-0.4
		c0-0.2-0.1-0.4-0.1-0.7c0-0.2,0-0.4,0-0.5c0-0.1,0-0.3,0.1-0.3c0-0.1,0.1-0.2,0.1-0.2c0.1,0,0.1-0.1,0.2-0.1c0.1,0,0.2,0.1,0.4,0.2
		c0.2,0.1,0.4,0.2,0.7,0.4s0.6,0.3,1,0.4c0.4,0.1,0.8,0.2,1.3,0.2c0.3,0,0.6,0,0.9-0.1c0.3-0.1,0.5-0.2,0.7-0.3
		c0.2-0.1,0.3-0.3,0.4-0.5s0.1-0.4,0.1-0.7c0-0.3-0.1-0.6-0.2-0.8c-0.2-0.2-0.4-0.4-0.6-0.6c-0.3-0.2-0.6-0.3-0.9-0.5
		c-0.3-0.1-0.7-0.3-1-0.5s-0.7-0.4-1-0.6c-0.3-0.2-0.6-0.5-0.9-0.7c-0.3-0.3-0.5-0.6-0.6-1s-0.2-0.9-0.2-1.4c0-0.6,0.1-1.2,0.4-1.7
		c0.2-0.5,0.6-0.9,1-1.2c0.4-0.3,0.9-0.6,1.4-0.7c0.5-0.2,1.1-0.2,1.7-0.2c0.3,0,0.6,0,0.9,0.1c0.3,0,0.6,0.1,0.9,0.2
		s0.5,0.2,0.7,0.3s0.4,0.2,0.4,0.3c0.1,0.1,0.1,0.1,0.1,0.2c0,0,0,0.1,0.1,0.2c0,0.1,0,0.2,0,0.3c0,0.1,0,0.3,0,0.4
		c0,0.2,0,0.4,0,0.5c0,0.1,0,0.3-0.1,0.3c0,0.1-0.1,0.2-0.1,0.2c0,0-0.1,0.1-0.2,0.1c-0.1,0-0.2,0-0.4-0.1s-0.4-0.2-0.6-0.3
		c-0.2-0.1-0.5-0.2-0.8-0.3c-0.3-0.1-0.7-0.1-1-0.1c-0.3,0-0.6,0-0.8,0.1c-0.2,0.1-0.4,0.2-0.5,0.3c-0.1,0.1-0.3,0.3-0.3,0.5
		c-0.1,0.2-0.1,0.4-0.1,0.6c0,0.3,0.1,0.5,0.2,0.8c0.2,0.2,0.4,0.4,0.6,0.6c0.3,0.2,0.6,0.3,0.9,0.5c0.3,0.1,0.7,0.3,1,0.5
		s0.7,0.4,1,0.6c0.3,0.2,0.6,0.5,0.9,0.7c0.3,0.3,0.5,0.6,0.6,1C468.7,739.3,468.8,739.7,468.8,740.3z"/>
	<path class="st11" d="M480,739.2c0,0.8-0.1,1.5-0.3,2.1s-0.5,1.2-0.9,1.7c-0.4,0.5-0.9,0.8-1.6,1.1s-1.4,0.4-2.2,0.4
		c-0.8,0-1.5-0.1-2.1-0.3s-1.1-0.6-1.5-1s-0.7-1-0.9-1.6s-0.3-1.3-0.3-2.2c0-0.8,0.1-1.5,0.3-2.1c0.2-0.6,0.5-1.2,0.9-1.7
		c0.4-0.5,0.9-0.8,1.6-1.1c0.6-0.3,1.4-0.4,2.2-0.4c0.8,0,1.5,0.1,2.1,0.3c0.6,0.2,1.1,0.5,1.5,1c0.4,0.4,0.7,1,0.9,1.6
		S480,738.4,480,739.2z M477.3,739.3c0-0.5,0-0.9-0.1-1.2c-0.1-0.4-0.2-0.7-0.4-1c-0.2-0.3-0.4-0.5-0.7-0.7
		c-0.3-0.2-0.6-0.2-1.1-0.2c-0.4,0-0.7,0.1-1,0.2c-0.3,0.1-0.5,0.3-0.7,0.6c-0.2,0.3-0.3,0.6-0.4,1c-0.1,0.4-0.1,0.8-0.1,1.3
		c0,0.5,0,0.9,0.1,1.2c0.1,0.4,0.2,0.7,0.4,1c0.2,0.3,0.4,0.5,0.7,0.7c0.3,0.2,0.6,0.2,1.1,0.2c0.4,0,0.7-0.1,1-0.2
		c0.3-0.1,0.5-0.3,0.7-0.6s0.3-0.6,0.4-1C477.3,740.2,477.3,739.8,477.3,739.3z"/>
	<path class="st11" d="M485.1,736.5v7.4c0,0.1,0,0.1-0.1,0.2c0,0.1-0.1,0.1-0.2,0.1s-0.2,0.1-0.4,0.1c-0.2,0-0.4,0-0.6,0
		s-0.5,0-0.6,0c-0.2,0-0.3,0-0.4-0.1c-0.1,0-0.2-0.1-0.2-0.1c0-0.1-0.1-0.1-0.1-0.2v-7.4h-1.1c-0.1,0-0.2-0.1-0.3-0.2
		c-0.1-0.2-0.1-0.4-0.1-0.8c0-0.2,0-0.4,0-0.5c0-0.1,0-0.2,0.1-0.3c0-0.1,0.1-0.1,0.1-0.2c0.1,0,0.1-0.1,0.2-0.1h1.1v-0.8
		c0-0.6,0.1-1.2,0.2-1.6c0.1-0.5,0.3-0.9,0.6-1.2c0.3-0.3,0.6-0.5,1-0.7s0.9-0.2,1.4-0.2c0.3,0,0.5,0,0.8,0.1c0.3,0,0.4,0.1,0.6,0.1
		c0.1,0,0.2,0.1,0.3,0.1c0,0,0.1,0.1,0.1,0.2c0,0.1,0,0.2,0.1,0.3c0,0.1,0,0.3,0,0.5s0,0.4,0,0.5c0,0.1,0,0.2-0.1,0.3
		c0,0.1-0.1,0.1-0.1,0.1c0,0-0.1,0-0.1,0s-0.1,0-0.1,0c-0.1,0-0.1,0-0.2-0.1c-0.1,0-0.2-0.1-0.3-0.1c-0.1,0-0.2,0-0.4,0
		c-0.2,0-0.3,0-0.5,0.1c-0.1,0.1-0.2,0.2-0.3,0.3c-0.1,0.1-0.2,0.3-0.2,0.5c0,0.2-0.1,0.4-0.1,0.7v0.8h3.5v-2c0-0.1,0-0.1,0.1-0.2
		s0.1-0.1,0.2-0.1c0.1,0,0.2-0.1,0.4-0.1c0.2,0,0.4,0,0.6,0c0.3,0,0.5,0,0.6,0c0.2,0,0.3,0,0.4,0.1c0.1,0,0.2,0.1,0.2,0.1
		s0.1,0.1,0.1,0.2v2h2c0.1,0,0.1,0,0.2,0.1c0.1,0,0.1,0.1,0.1,0.2c0,0.1,0.1,0.2,0.1,0.3c0,0.1,0,0.3,0,0.5c0,0.4,0,0.6-0.1,0.8
		c-0.1,0.2-0.2,0.2-0.3,0.2h-2v4.3c0,0.5,0.1,0.9,0.2,1.1c0.2,0.3,0.4,0.4,0.8,0.4c0.1,0,0.3,0,0.4,0c0.1,0,0.2-0.1,0.3-0.1
		c0.1,0,0.2-0.1,0.2-0.1c0.1,0,0.1,0,0.2,0c0,0,0.1,0,0.1,0c0,0,0.1,0.1,0.1,0.1c0,0.1,0,0.2,0.1,0.3c0,0.1,0,0.3,0,0.5
		c0,0.3,0,0.5-0.1,0.7c0,0.2-0.1,0.3-0.2,0.3c-0.1,0.1-0.2,0.1-0.3,0.2c-0.1,0.1-0.3,0.1-0.4,0.1c-0.2,0-0.3,0.1-0.5,0.1
		c-0.2,0-0.4,0-0.6,0c-0.5,0-1-0.1-1.3-0.2c-0.4-0.1-0.7-0.3-0.9-0.6c-0.2-0.3-0.4-0.6-0.5-1c-0.1-0.4-0.2-0.9-0.2-1.5v-4.7H485.1z"
		/>
	<path class="st11" d="M509.4,734.7c0,0.1,0,0.2,0,0.3s-0.1,0.3-0.1,0.5l-2.4,8.3c0,0.1-0.1,0.2-0.1,0.3c-0.1,0.1-0.1,0.1-0.3,0.2
		c-0.1,0-0.3,0.1-0.5,0.1c-0.2,0-0.5,0-0.8,0c-0.3,0-0.6,0-0.8,0c-0.2,0-0.4,0-0.5-0.1c-0.1,0-0.2-0.1-0.3-0.2
		c-0.1-0.1-0.1-0.2-0.1-0.3l-1.5-5.6l0-0.1l0,0.1l-1.4,5.6c0,0.1-0.1,0.2-0.1,0.3c-0.1,0.1-0.1,0.1-0.3,0.2s-0.3,0.1-0.5,0.1
		c-0.2,0-0.5,0-0.8,0c-0.3,0-0.6,0-0.8,0c-0.2,0-0.4,0-0.5-0.1c-0.1,0-0.2-0.1-0.3-0.2c-0.1-0.1-0.1-0.2-0.1-0.3l-2.4-8.3
		c-0.1-0.2-0.1-0.4-0.1-0.5c0-0.1,0-0.2,0-0.3c0-0.1,0-0.1,0.1-0.2c0-0.1,0.1-0.1,0.2-0.1c0.1,0,0.2-0.1,0.4-0.1c0.2,0,0.4,0,0.6,0
		c0.3,0,0.5,0,0.7,0s0.3,0,0.4,0.1s0.2,0.1,0.2,0.1c0,0.1,0.1,0.1,0.1,0.2l1.8,6.7l0,0.1l0-0.1l1.7-6.7c0-0.1,0.1-0.2,0.1-0.2
		c0-0.1,0.1-0.1,0.2-0.1s0.2-0.1,0.4-0.1c0.2,0,0.4,0,0.6,0s0.5,0,0.6,0c0.2,0,0.3,0,0.4,0.1c0.1,0,0.2,0.1,0.2,0.1
		c0,0.1,0.1,0.1,0.1,0.2l1.8,6.8l0,0.1l0-0.1l1.7-6.7c0-0.1,0-0.2,0.1-0.2c0-0.1,0.1-0.1,0.2-0.1c0.1,0,0.2-0.1,0.4-0.1s0.4,0,0.6,0
		s0.5,0,0.6,0c0.2,0,0.3,0,0.4,0.1c0.1,0,0.2,0.1,0.2,0.1C509.3,734.6,509.4,734.7,509.4,734.7z"/>
	<path class="st11" d="M518.6,743.9c0,0.1,0,0.2-0.1,0.2s-0.2,0.1-0.3,0.1c-0.1,0-0.4,0-0.7,0c-0.3,0-0.5,0-0.7,0
		c-0.1,0-0.2-0.1-0.3-0.1c-0.1-0.1-0.1-0.1-0.1-0.2v-0.7c-0.4,0.4-0.8,0.7-1.3,0.9c-0.5,0.2-1,0.3-1.6,0.3c-0.5,0-0.9-0.1-1.3-0.2
		c-0.4-0.1-0.8-0.3-1.1-0.6c-0.3-0.3-0.5-0.6-0.7-0.9s-0.2-0.8-0.2-1.3c0-0.5,0.1-1,0.3-1.4c0.2-0.4,0.5-0.7,0.9-1
		c0.4-0.3,0.9-0.4,1.5-0.6s1.3-0.2,2.1-0.2h0.9v-0.6c0-0.3,0-0.5-0.1-0.8c-0.1-0.2-0.2-0.4-0.3-0.5c-0.1-0.1-0.3-0.2-0.5-0.3
		c-0.2-0.1-0.5-0.1-0.8-0.1c-0.4,0-0.8,0-1.2,0.1c-0.3,0.1-0.6,0.2-0.9,0.3c-0.3,0.1-0.5,0.2-0.7,0.3c-0.2,0.1-0.3,0.1-0.4,0.1
		c-0.1,0-0.1,0-0.2-0.1c-0.1,0-0.1-0.1-0.1-0.2c0-0.1-0.1-0.2-0.1-0.3c0-0.1,0-0.3,0-0.4c0-0.2,0-0.4,0.1-0.5s0.1-0.2,0.2-0.3
		c0.1-0.1,0.3-0.2,0.5-0.3c0.2-0.1,0.5-0.2,0.8-0.3c0.3-0.1,0.7-0.2,1.1-0.3c0.4-0.1,0.8-0.1,1.2-0.1c0.7,0,1.3,0.1,1.8,0.2
		c0.5,0.1,0.9,0.4,1.3,0.6c0.3,0.3,0.6,0.7,0.7,1.1s0.2,1,0.2,1.6V743.9z M516,740h-1c-0.4,0-0.8,0-1.1,0.1
		c-0.3,0.1-0.5,0.2-0.7,0.3c-0.2,0.1-0.3,0.3-0.4,0.4c-0.1,0.2-0.1,0.4-0.1,0.6c0,0.4,0.1,0.7,0.4,0.9c0.2,0.2,0.6,0.3,1,0.3
		c0.4,0,0.7-0.1,1-0.3c0.3-0.2,0.6-0.5,0.9-0.8V740z"/>
	<path class="st11" d="M527,735.6c0,0.2,0,0.4,0,0.6s0,0.3-0.1,0.4c0,0.1-0.1,0.2-0.1,0.2c0,0-0.1,0.1-0.2,0.1c-0.1,0-0.1,0-0.2,0
		c-0.1,0-0.1,0-0.2-0.1c-0.1,0-0.2-0.1-0.3-0.1c-0.1,0-0.2,0-0.3,0c-0.1,0-0.3,0-0.4,0.1c-0.1,0.1-0.3,0.1-0.4,0.3
		c-0.2,0.1-0.3,0.3-0.5,0.5c-0.2,0.2-0.3,0.5-0.5,0.8v5.7c0,0.1,0,0.1-0.1,0.2c0,0.1-0.1,0.1-0.2,0.1c-0.1,0-0.2,0.1-0.4,0.1
		c-0.2,0-0.4,0-0.6,0s-0.5,0-0.6,0c-0.2,0-0.3,0-0.4-0.1c-0.1,0-0.2-0.1-0.2-0.1c0-0.1-0.1-0.1-0.1-0.2v-9.1c0-0.1,0-0.1,0.1-0.2
		c0-0.1,0.1-0.1,0.2-0.1s0.2-0.1,0.3-0.1c0.1,0,0.3,0,0.5,0c0.2,0,0.4,0,0.5,0c0.1,0,0.3,0,0.3,0.1c0.1,0,0.1,0.1,0.2,0.1
		c0,0.1,0.1,0.1,0.1,0.2v1.1c0.2-0.3,0.5-0.6,0.7-0.8c0.2-0.2,0.4-0.4,0.6-0.5s0.4-0.2,0.6-0.3c0.2-0.1,0.4-0.1,0.6-0.1
		c0.1,0,0.2,0,0.3,0c0.1,0,0.2,0,0.3,0.1c0.1,0,0.2,0.1,0.3,0.1c0.1,0,0.1,0.1,0.2,0.1c0,0,0.1,0.1,0.1,0.1c0,0,0,0.1,0,0.2
		c0,0.1,0,0.2,0,0.3S527,735.3,527,735.6z"/>
	<path class="st11" d="M536.8,739c0,0.3-0.1,0.5-0.2,0.7c-0.1,0.2-0.3,0.2-0.6,0.2h-5.6c0,0.4,0,0.7,0.1,1.1
		c0.1,0.3,0.2,0.6,0.4,0.8c0.2,0.2,0.5,0.4,0.8,0.5c0.3,0.1,0.7,0.2,1.1,0.2c0.5,0,0.8,0,1.2-0.1c0.3-0.1,0.6-0.1,0.9-0.2
		c0.3-0.1,0.5-0.2,0.6-0.2c0.2-0.1,0.3-0.1,0.4-0.1c0.1,0,0.1,0,0.2,0c0,0,0.1,0.1,0.1,0.1s0,0.1,0.1,0.3c0,0.1,0,0.3,0,0.4
		c0,0.2,0,0.3,0,0.4c0,0.1,0,0.2,0,0.3s0,0.1-0.1,0.2c0,0.1-0.1,0.1-0.1,0.1c0,0-0.2,0.1-0.4,0.2s-0.5,0.2-0.8,0.2
		c-0.3,0.1-0.7,0.1-1.1,0.2c-0.4,0.1-0.8,0.1-1.3,0.1c-0.8,0-1.5-0.1-2.1-0.3c-0.6-0.2-1.1-0.5-1.5-0.9s-0.7-0.9-0.9-1.6
		c-0.2-0.6-0.3-1.4-0.3-2.2c0-0.8,0.1-1.5,0.3-2.2c0.2-0.7,0.5-1.2,0.9-1.7c0.4-0.5,0.9-0.8,1.5-1c0.6-0.2,1.2-0.4,2-0.4
		c0.8,0,1.4,0.1,2,0.3c0.5,0.2,1,0.5,1.3,0.9c0.3,0.4,0.6,0.9,0.8,1.4s0.2,1.1,0.2,1.8V739z M534.3,738.3c0-0.7-0.1-1.3-0.4-1.7
		c-0.3-0.4-0.8-0.6-1.4-0.6c-0.3,0-0.6,0.1-0.9,0.2c-0.2,0.1-0.4,0.3-0.6,0.5c-0.2,0.2-0.3,0.5-0.4,0.7c-0.1,0.3-0.1,0.6-0.1,0.9
		H534.3z"/>
</g>
</svg>
