<?xml version="1.0" encoding="utf-8"?>
<!-- Generator: Adobe Illustrator 24.0.1, SVG Export Plug-In . SVG Version: 6.00 Build 0)  -->
<svg version="1.1" id="Capa_1" xmlns="http://www.w3.org/2000/svg" xmlns:xlink="http://www.w3.org/1999/xlink" x="0px" y="0px"
	 viewBox="0 0 300 250" style="enable-background:new 0 0 300 250;" xml:space="preserve">
<style type="text/css">
	.st0{fill:#4F53FF;}
	.st1{fill:#2E5871;}
	.st2{fill:#E3B591;}
	.st3{fill:#F0C8A4;}
	.st4{fill:#FA6021;}
	.st5{fill:#FA6121;}
	.st6{fill:#905F2D;}
	.st7{fill:#91602E;}
	.st8{fill:#915F2D;}
	.st9{fill:#E3B592;}
	.st10{fill:#F4EFEB;}
	.st11{fill:none;}
	.st12{font-family:'Calibri-Bold';}
	.st13{font-size:15.8497px;}
	.st14{fill:#FFFFFF;}
	.st15{font-size:5.9436px;}
</style>
<g>
	<path class="st0" d="M295.2,236.3c0,5.9-7.1,10.7-15.8,10.7h-256c-8.7,0-15.8-4.8-15.8-10.7V121c0-5.9,7.1-10.7,15.8-10.7h256
		c8.7,0,15.8,4.8,15.8,10.7V236.3z"/>
</g>
<g>
	<g>
		<path class="st1" d="M70.8,95.5c0-4.4,0-8.9,0-13.3c0.1-0.3,0.3-0.6,0.3-0.9c0.5-3,0.7-6.1,1.4-9.1c4.1-19.8,13.7-35.9,29.1-48.1
			c17.6-13.9,37.5-19,59.3-15.5c17.6,2.9,32.6,11.3,44.6,25.2c16.8,19.4,23.3,42.3,19.6,68.1c-2.5,17.2-9.8,31.9-21.5,44.3
			c-3.9,4.2-8.2,8-13.1,11c-1-4.1-2-8.2-2.9-12.4c-1.2-5.4-3.8-9.6-8.9-11.9c-4.2-1.8-8.4-3.6-12.6-5.4c-1.6-0.5-3.3-1-5-1.5
			c-0.9-0.3-1.8-0.6-2.7-0.8c-1-0.2-1.3-0.6-1.3-1.7c0.1-1.2,0-2.5,0-3.8c0.7-0.2,1.4-0.2,1.9-0.7c2.9-2.7,5.9-5.4,8.7-8.2
			c0.5-0.5,0.8-1.4,0.9-2.2c0.3-3.5,0.5-7,0.8-10.4c-0.1-1.3,0.6-1.9,1.6-2.6c1.4-1,2.8-2.3,3.7-3.8c3-5.5,1-12.6-4-14.1
			c0.3-6,0.7-12.1,0.9-18.2c0.1-3.1-1.3-5.5-3.7-7.2c-2.8-2.1-6-2.7-9.3-2.8c-6.9-0.1-13.7,0-20.6,0c-2.7,0-5.3,0.5-7.8,1.8
			c-3.4,1.8-5.5,4.6-5.3,8.7c0.2,5.9,0.6,11.8,1,17.7c-1.2,1-2.7,1.7-3.6,3c-3.3,4.7-1.4,12.4,3.6,15.2c0.4,0.2,0.8,0.6,1.2,0.9
			c0.3,4.2,0.6,8.4,1,12.6c0.1,0.5,0.5,1.1,0.9,1.5c2.7,2.6,5.4,5.1,8.1,7.6c0.7,0.6,1.6,0.8,2.5,1.2c0,0.3,0,0.6,0,0.9
			c0,4.2,0,4.2-3.9,5.3c-1.7,0.5-3.3,1-5,1.5c-0.8,0.3-1.5,0.5-2.3,0.8c-4.8,1.7-9.4,3.5-13.6,6.7c-2.2,1.6-3.8,3.7-4.3,6.6
			c-1.1,5.4-2.4,10.6-3.6,16c-0.2-0.1-0.5-0.2-0.7-0.3c-19.3-13.5-30.9-32.2-34.6-56.2C71.4,99.1,71.1,97.3,70.8,95.5z"/>
		<path class="st2" d="M170.9,77.7c5,1.5,7,8.6,4,14.1c-0.8,1.5-2.3,2.8-3.7,3.8c-1,0.7-1.7,1.3-1.6,2.6c-0.1-0.3-0.1-0.5-0.3-1.1
			c-0.5,1.4-0.8,2.5-1.3,3.5c-1.2,2.5-2.2,5-3.7,7.3c-1.6,2.5-4,2.3-5.6-0.1c-0.5-0.7-0.9-1.6-1.5-2.2c-0.7-0.7-1.6-1.5-2.5-1.8
			c-2-0.8-4.2-1.3-6.2-1.9c0-14.1,0-28.2,0-42.3c2.4-0.4,4.9-0.8,7.3-1.3c4.9-1.1,8.1,1,9.4,6c1.1,4.4,1.3,8.9,1,13.4
			c-0.1,0.8,0,1.6,0,2.2C167.8,79.1,169.4,78.4,170.9,77.7z"/>
		<path class="st3" d="M148.5,59.6c0,14.1,0,28.2,0,42.3c-0.1,0.1-0.2,0.2-0.3,0.3c-1.1,0.3-2.2,0.7-3.4,0.8
			c-3.1,0.4-5.2,2.1-6.7,4.9c-1.3,2.4-3.9,2.5-5.4,0.1c-1.5-2.5-2.7-5.2-3.9-7.8c-0.5-1.1-1-2.4-1.6-3.6c-0.4-0.3-0.8-0.7-1.2-0.9
			c-5-2.7-6.9-10.4-3.6-15.2c0.9-1.2,2.4-2,3.6-3c1.6,0.8,3.1,1.5,4.8,2.3c0-0.8-0.1-1.7-0.1-2.6c-0.3-4.5-0.1-9,1.1-13.4
			c1.2-4.7,4.6-6.7,9.1-5.8C143.4,58.8,146,59.2,148.5,59.6z"/>
		<path class="st4" d="M190.6,157.1c-3.6,2.1-7.1,4.4-10.8,6.2c-6,3-12.3,4.8-19,5.9c0.6-3.2,1.2-6.2,1.7-9.3
			c1.9-10.6,3.2-21.3,3.6-32.1c0-0.2,0.1-0.3,0.1-0.5c4.2,1.8,8.4,3.6,12.6,5.4c5,2.2,7.7,6.4,8.9,11.9
			C188.5,148.8,189.6,153,190.6,157.1z"/>
		<path class="st5" d="M130.8,127.4c0.5,6.2,0.8,12.3,1.6,18.5c1,7.3,2.4,14.6,3.6,21.9c0.1,0.4,0.1,0.8,0.2,1.7
			c-4.4-1.2-8.6-2.2-12.6-3.6c-5.3-1.8-10.4-4.3-15.2-7.4c-0.5-0.3-1-0.7-1.4-1.1c1.2-5.3,2.5-10.6,3.6-16c0.6-2.9,2.1-4.9,4.3-6.6
			c4.1-3.1,8.8-5,13.6-6.7C129.2,128,130,127.7,130.8,127.4z"/>
		<path class="st6" d="M148.5,59.6c-2.5-0.5-5.1-0.8-7.5-1.4c-4.5-1-7.9,1.1-9.1,5.8c-1.1,4.4-1.4,8.9-1.1,13.4
			c0.1,0.9,0.1,1.8,0.1,2.6c-1.6-0.8-3.2-1.5-4.8-2.3c-0.3-5.9-0.7-11.8-1-17.7c-0.1-4.1,1.9-6.9,5.3-8.7c2.5-1.3,5.1-1.8,7.8-1.8
			c6.9,0,13.7-0.1,20.6,0c3.3,0,6.5,0.7,9.3,2.8c2.4,1.8,3.8,4.2,3.7,7.2c-0.2,6.1-0.6,12.1-0.9,18.2c-1.6,0.7-3.1,1.5-4.7,2.2
			c0-0.6-0.1-1.4,0-2.2c0.3-4.5,0.1-9-1-13.4c-1.2-5-4.6-7-9.4-6C153.4,58.8,150.9,59.2,148.5,59.6z"/>
		<path class="st7" d="M148.2,102.2c0.1-0.1,0.2-0.2,0.3-0.3c2.1,0.6,4.2,1.2,6.2,1.9c0.9,0.4,1.8,1.1,2.5,1.8
			c0.6,0.6,1,1.5,1.5,2.2c1.6,2.4,4,2.6,5.6,0.1c1.4-2.3,2.5-4.8,3.7-7.3c0.5-1,0.8-2.1,1.3-3.5c0.1,0.6,0.2,0.8,0.3,1.1
			c-0.3,3.5-0.5,7-0.8,10.4c-0.1,0.8-0.4,1.7-0.9,2.2c-2.8,2.8-5.7,5.5-8.7,8.2c-0.5,0.4-1.3,0.5-1.9,0.7c-2.9,0-5.9,0-8.8,0
			c-0.1-0.1-0.2-0.1-0.3-0.2c0-3.9,0-7.7,0-11.6c1.2-0.1,2.5-0.1,3.8-0.2c-0.7-2.1-2.2-2.4-3.8-2.5
			C148.2,104.3,148.2,103.2,148.2,102.2z"/>
		<path class="st8" d="M148.2,102.2c0,1,0,2,0,3c-1.5,0.2-2.7,0.9-3.3,2.5c1.3,0.1,2.3,0.1,3.3,0.2c0,3.9,0,7.7,0,11.6
			c-2.8,0.1-5.7,0.1-8.5,0.2c-0.8-0.4-1.8-0.6-2.5-1.2c-2.8-2.5-5.5-5.1-8.1-7.6c-0.4-0.4-0.8-1-0.9-1.5c-0.4-4.2-0.6-8.4-1-12.6
			c0.5,1.2,1,2.4,1.6,3.6c1.3,2.6,2.4,5.4,3.9,7.8c1.4,2.3,4.1,2.2,5.4-0.1c1.6-2.8,3.6-4.5,6.7-4.9
			C146,102.9,147.1,102.5,148.2,102.2z"/>
		<path class="st9" d="M148.5,119.7c2.9,0,5.9,0,8.8,0c0,1.2,0.1,2.5,0,3.8c-0.1,1,0.3,1.5,1.3,1.7c0.9,0.2,1.8,0.5,2.7,0.8
			c-0.4,1.2-0.7,2.5-1.1,3.7c-1.7,5.1-6.4,8.5-11.6,8.4C148.5,131.9,148.5,125.8,148.5,119.7z"/>
		<path class="st3" d="M148.5,119.7c0,6.1,0,12.3,0,18.4c-5.8,0.1-11.1-4.4-12.2-10.4c-0.1-0.6-0.4-1.2-0.5-1.8c3.9-1,3.9-1,3.9-5.3
			c0-0.3,0-0.6,0-0.9c2.8-0.1,5.7-0.1,8.5-0.2C148.3,119.6,148.4,119.7,148.5,119.7z"/>
		<path class="st10" d="M148.2,107.9c-1-0.1-2.1-0.1-3.3-0.2c0.7-1.6,1.9-2.3,3.3-2.5c1.6,0.1,3.1,0.4,3.8,2.5
			C150.6,107.8,149.4,107.9,148.2,107.9z"/>
	</g>
</g>
<rect x="82.7" y="182.2" class="st11" width="131.6" height="29.1"/>
<text transform="matrix(1 0 0 1 82.6914 192.96)" class="st12 st13">RONALD VIRACA C.</text>
<rect x="98.3" y="199.5" class="st11" width="132.7" height="11.9"/>
<text transform="matrix(1 0 0 1 98.2715 203.4805)" class="st14 st12 st15">Especialista en desarrollo de Software</text>
</svg>
