<?xml version="1.0" encoding="utf-8"?>
<!-- Generator: Adobe Illustrator 24.0.1, SVG Export Plug-In . SVG Version: 6.00 Build 0)  -->
<svg version="1.1" id="Capa_1" xmlns="http://www.w3.org/2000/svg" xmlns:xlink="http://www.w3.org/1999/xlink" x="0px" y="0px"
	 viewBox="0 0 1920 100" style="enable-background:new 0 0 1920 100;" xml:space="preserve">
<style type="text/css">
	.st0{fill:url(#SVGID_1_);}
	.st1{fill:url(#SVGID_2_);}
	.st2{fill:#91B3FA;}
	.st3{opacity:0.64;}
	.st4{fill:#FFFFFF;}
	.st5{fill:#BDD0FB;}
	.st6{fill:url(#SVGID_3_);}
	.st7{fill:url(#SVGID_4_);}
	.st8{fill:url(#SVGID_5_);}
	.st9{fill:url(#SVGID_6_);}
</style>
<linearGradient id="SVGID_1_" gradientUnits="userSpaceOnUse" x1="604.3598" y1="-42.5026" x2="605.1578" y2="-42.5026" gradientTransform="matrix(-1.1495 -2.802438e-02 -3.040357e-02 0.9996 691.3415 44.5924)">
	<stop  offset="0" style="stop-color:#DAE3FE"/>
	<stop  offset="1" style="stop-color:#E9EFFD"/>
</linearGradient>
<line class="st0" x1="-2.1" y1="-14.8" x2="-3" y2="-14.8"/>
<linearGradient id="SVGID_2_" gradientUnits="userSpaceOnUse" x1="23.3147" y1="31.9602" x2="1890.5487" y2="31.9602" gradientTransform="matrix(1.0298 -2.804226e-02 2.721442e-02 0.9994 -27.131 44.6497)">
	<stop  offset="0" style="stop-color:#DAE3FE"/>
	<stop  offset="1" style="stop-color:#E9EFFD"/>
</linearGradient>
<polyline class="st1" points="1920,0 1920,99.5 -1.6,100.2 -0.4,0 "/>
<path class="st2" d="M-3,109.9l399-0.4c-17.8-16.2-41.2-26.7-67.6-28.5c-3.3-0.2-6.6-0.3-9.9-0.3c-32.1,0.5-62.7-11.9-84.6-34.3
	c-16.1-16.4-38.3-27.3-63.6-29c-11.1-0.8-22,0.3-32.2,2.9c-20.6,5.2-42.4,0.4-58.3-13c-12-10-27.3-16.5-44.4-17.7
	C21.9-11.4,9-9-2.6-3.9"/>
<g>
	<g>
		<g class="st3">
			<path class="st4" d="M148.4,7.8c-0.6,0.9-0.3,2.1,0.6,2.8c1,0.7,2,1.4,3,2.2c1,0.8,2.6,0.6,3.4-0.3c0.9-0.9,0.7-2.3-0.3-3.1
				c-1-0.8-2.1-1.5-3.1-2.3c-1.1-0.7-2.6-0.6-3.4,0.4C148.6,7.6,148.5,7.7,148.4,7.8z"/>
			<path class="st4" d="M-21.8,96.7c-0.2,0.4-0.3,0.9-0.3,1.3c0.2,1.2,0.3,2.4,0.6,3.6c0.2,1.2,1.5,2,2.8,1.8c1.3-0.2,2.2-1.3,2-2.5
				c-0.2-1.1-0.4-2.3-0.5-3.4c-0.2-1.2-1.4-2.1-2.7-1.9C-20.8,95.6-21.4,96.1-21.8,96.7z"/>
		</g>
		<g>
			<g>
				<path class="st5" d="M7.4,106.8c-0.2-0.5-0.1-1,0.3-1.3L19.3,96c-1.1-6.5-1.2-13.2,0.1-20L7.8,66.7c-0.4-0.3-0.5-0.9-0.3-1.3
					l7.2-15.7c0.2-0.5,0.7-0.7,1.3-0.7l15.4,0.8c4.4-5.5,9.6-10.3,15.5-14.1L46,21.6c0-0.5,0.3-1,0.8-1.1l17.2-6.5
					c0.5-0.2,1.1-0.1,1.4,0.3l10.2,10.6c7.1-1.1,14.5-1.1,21.8-0.1l10.3-10.6c0.4-0.4,0.9-0.5,1.4-0.3l17.1,6.4
					c0.5,0.2,0.8,0.6,0.8,1.1l-1,14.1c6,3.9,11.2,8.7,15.4,14.1l15.5-0.9c0.5,0,1,0.3,1.2,0.7l7.1,15.6c0.2,0.5,0.1,1-0.3,1.3
					l-11.6,9.4c1.2,6.5,1.2,13.2-0.1,20l11.5,9.3c0.4,0.3,0.5,0.9,0.3,1.3l-7.2,15.7c-0.2,0.5-0.7,0.7-1.3,0.7l-15.4-0.8
					c-4.4,5.5-9.6,10.3-15.5,14.1l0.9,14.1c0,0.5-0.3,1-0.8,1.1l-17.2,6.5c-0.5,0.2-1.1,0.1-1.4-0.3L97,147
					c-7.1,1.1-14.5,1.1-21.8,0.1l-10.3,10.6c-0.4,0.4-0.9,0.5-1.4,0.3l-17.1-6.4c-0.5-0.2-0.8-0.6-0.8-1.1l1-14.1
					c-6-3.9-11.2-8.7-15.4-14.1l-15.5,0.9c-0.5,0-1-0.3-1.2-0.7L7.4,106.8z"/>
			</g>
			
				<linearGradient id="SVGID_3_" gradientUnits="userSpaceOnUse" x1="2334.4348" y1="-1089.1558" x2="2369.8035" y2="-1089.1558" gradientTransform="matrix(0.5293 -0.8806 -0.9835 -0.4739 -2229.9819 1640.9431)">
				<stop  offset="0" style="stop-color:#DAE3FE"/>
				<stop  offset="1" style="stop-color:#E9EFFD"/>
			</linearGradient>
			<path class="st6" d="M69.2,77.6c-4.5,7.6-2.4,17.3,5.4,22.6c4.1,2.8,9.3,4,14.4,3.3c5.1-0.7,9.7-3.2,12.8-7
				c6.4-7.9,4.7-19-3.9-24.8c-8.6-5.8-20.7-4.2-27.2,3.7l0,0C70.2,76.1,69.7,76.8,69.2,77.6z M73.1,76.9L73.1,76.9L73.1,76.9z
				 M98.2,91.7c-0.3,0.5-0.7,1-1.1,1.5c-2.2,2.7-5.3,4.4-8.9,4.9c-3.6,0.5-7.2-0.3-10.1-2.3c-6-4.1-7.2-11.8-2.7-17.3
				c4.5-5.5,13-6.7,19-2.6C99.9,79.6,101.4,86.4,98.2,91.7z"/>
			
				<linearGradient id="SVGID_4_" gradientUnits="userSpaceOnUse" x1="2310.6616" y1="-1089.3998" x2="2394.0942" y2="-1089.3998" gradientTransform="matrix(0.5293 -0.8806 -0.9835 -0.4739 -2229.9819 1640.9431)">
				<stop  offset="0" style="stop-color:#DAE3FE"/>
				<stop  offset="1" style="stop-color:#E9EFFD"/>
			</linearGradient>
			<path class="st7" d="M46.5,66c-0.7,1.2-1.4,2.5-2,3.8c-0.2,0.5-0.5,1.1-0.7,1.6c-0.9,2.3-1.6,4.6-2.1,6.9
				c-0.1,0.4,0.1,0.8,0.5,0.9c0.1,0,0.2,0.1,0.3,0.1c0.5,0.1,1-0.2,1.1-0.7c0.6-2.8,1.5-5.5,2.7-8.2l0,0
				C52.5,56.9,66,48.1,80.9,46.1c7.1-0.9,14.6-0.2,21.7,2.3c0.3,0.1,0.6,0.2,0.9,0.3c1.4,0.5,2.7,1.1,4,1.7
				c19.5,9.6,28.3,31.4,19.5,50.5c-9.3,20.4-35,30.2-57.3,21.8c-1.4-0.5-2.7-1.1-4-1.7c-5.6-2.8-10.5-6.6-14.4-11.3
				c-0.1-0.1-0.2-0.2-0.3-0.3c-0.3-0.2-0.7-0.1-1,0.1c-0.4,0.3-0.5,0.8-0.2,1.2c4,4.9,9.1,8.9,15,11.8c1.4,0.7,2.8,1.3,4.2,1.8
				c23.3,8.8,50.1-1.5,59.9-22.8c9.1-20,0-42.8-20.4-52.7c-1.4-0.7-2.8-1.3-4.2-1.8C82.5,38.9,57.5,47.4,46.5,66z"/>
		</g>
	</g>
	<g>
		<g>
			<g class="st3">
				<path class="st4" d="M234.4-17.4c-0.1,0.6,0.3,1.2,1,1.4c0.7,0.2,1.4,0.4,2.1,0.7c0.7,0.2,1.6-0.1,1.8-0.8
					c0.3-0.7-0.1-1.4-0.9-1.7c-0.7-0.2-1.5-0.5-2.2-0.7c-0.8-0.2-1.6,0.2-1.8,0.9C234.4-17.6,234.4-17.5,234.4-17.4z"/>
				<path class="st4" d="M160,63.1c0,0.3,0,0.5,0.1,0.8c0.4,0.6,0.7,1.3,1.1,1.9c0.4,0.6,1.3,0.9,2,0.5c0.7-0.4,0.9-1.2,0.5-1.8
					c-0.4-0.6-0.7-1.2-1.1-1.8c-0.4-0.6-1.2-0.9-1.9-0.6C160.3,62.3,160.1,62.7,160,63.1z"/>
			</g>
			<g>
				<g>
					<path class="st5" d="M178.5,63.4c-0.2-0.2-0.3-0.5-0.1-0.8l4.3-7.3c-2.1-3.4-3.7-7.2-4.5-11.1l-8.5-3.1
						c-0.3-0.1-0.5-0.4-0.5-0.7l0.4-10c0-0.3,0.2-0.5,0.5-0.6l8.8-2.4c1.2-3.9,3-7.5,5.4-10.7L180.6,9c-0.1-0.3-0.1-0.6,0.2-0.8
						l8.1-6.8c0.2-0.2,0.6-0.2,0.9-0.1l8.1,4c3.7-1.9,7.8-3.3,12.1-4l3.3-7.8c0.1-0.3,0.4-0.4,0.7-0.4l11,0.5c0.3,0,0.6,0.2,0.7,0.5
						l2.7,8c4.3,1.1,8.2,2.8,11.8,5l8.4-3.3c0.3-0.1,0.6,0,0.9,0.2l7.5,7.4c0.2,0.2,0.3,0.5,0.1,0.8l-4.3,7.3
						c2.1,3.4,3.7,7.2,4.5,11.1l8.5,3.1c0.3,0.1,0.5,0.4,0.5,0.7l-0.4,10c0,0.3-0.2,0.5-0.5,0.6l-8.8,2.4c-1.2,3.9-3,7.5-5.4,10.7
						l3.7,7.7c0.1,0.3,0.1,0.6-0.2,0.8l-8.1,6.8c-0.2,0.2-0.6,0.2-0.9,0.1l-8.1-4c-3.7,1.9-7.8,3.3-12.1,4l-3.3,7.8
						c-0.1,0.3-0.4,0.4-0.7,0.4l-11-0.5c-0.3,0-0.6-0.2-0.7-0.5l-2.7-8c-4.3-1.1-8.2-2.8-11.8-5l-8.4,3.3c-0.3,0.1-0.6,0-0.9-0.2
						L178.5,63.4z"/>
				</g>
				
					<linearGradient id="SVGID_5_" gradientUnits="userSpaceOnUse" x1="1998.5652" y1="-1312.3661" x2="2019.5128" y2="-1312.3661" gradientTransform="matrix(0.1584 -0.9899 -1.1057 -0.1418 -1551.5621 1840.0088)">
					<stop  offset="0" style="stop-color:#DAE3FE"/>
					<stop  offset="1" style="stop-color:#E9EFFD"/>
				</linearGradient>
				<path class="st8" d="M206.3,35.8c-0.8,5.1,2.6,10,8.2,11.6c2.9,0.8,6.1,0.5,8.7-0.8c2.7-1.3,4.7-3.5,5.5-6.2
					c1.8-5.5-1.7-11.4-7.8-13.1c-6.1-1.7-12.5,1.5-14.3,7l0,0C206.5,34.8,206.3,35.3,206.3,35.8z M208.3,34.8L208.3,34.8L208.3,34.8
					z M225.6,38.4c-0.1,0.4-0.1,0.7-0.2,1.1c-0.6,1.9-2,3.4-3.9,4.3c-1.9,0.9-4.1,1.1-6.1,0.6c-4.3-1.2-6.7-5.3-5.5-9.1
					c1.2-3.9,5.7-6.1,10-4.9C223.8,31.4,226.2,34.9,225.6,38.4z"/>
				
					<linearGradient id="SVGID_6_" gradientUnits="userSpaceOnUse" x1="1984.4852" y1="-1312.5106" x2="2033.8995" y2="-1312.5106" gradientTransform="matrix(0.1584 -0.9899 -1.1057 -0.1418 -1551.5621 1840.0088)">
					<stop  offset="0" style="stop-color:#DAE3FE"/>
					<stop  offset="1" style="stop-color:#E9EFFD"/>
				</linearGradient>
				<path class="st9" d="M191,33.6c-0.1,0.8-0.2,1.7-0.2,2.5c0,0.3,0,0.7,0,1c0,1.4,0.1,2.9,0.4,4.2c0,0.2,0.2,0.4,0.5,0.4
					c0.1,0,0.1,0,0.2,0c0.3,0,0.5-0.3,0.5-0.6c-0.3-1.7-0.4-3.3-0.4-5l0,0c0.4-8.7,5.8-16.1,13.7-19.9c3.8-1.8,8.1-2.8,12.6-2.7
					c0.2,0,0.4,0,0.6,0c0.9,0,1.8,0.1,2.6,0.2c13,1.8,22.9,12.3,22.4,24.5c-0.5,13-12.6,23.2-26.9,22.6c-0.9,0-1.8-0.1-2.6-0.2
					c-3.8-0.5-7.4-1.8-10.6-3.7c-0.1,0-0.2-0.1-0.2-0.1c-0.2,0-0.4,0.1-0.6,0.2c-0.2,0.2-0.1,0.6,0.2,0.7c3.3,2,7.1,3.3,11,3.8
					c0.9,0.1,1.8,0.2,2.7,0.2c14.9,0.6,27.5-10,28.1-23.6c0.5-12.8-9.7-23.8-23.4-25.6c-0.9-0.1-1.8-0.2-2.8-0.2
					C204.8,11.9,192.9,21.2,191,33.6z"/>
			</g>
		</g>
	</g>
</g>
</svg>
