<?xml version="1.0" encoding="utf-8"?>
<!-- Generator: Adobe Illustrator 24.0.1, SVG Export Plug-In . SVG Version: 6.00 Build 0)  -->
<svg version="1.1" id="Capa_1" xmlns="http://www.w3.org/2000/svg" xmlns:xlink="http://www.w3.org/1999/xlink" x="0px" y="0px"
	 viewBox="0 0 1920 100" style="enable-background:new 0 0 1920 100;" xml:space="preserve">
<style type="text/css">
	.st0{fill:url(#SVGID_1_);}
	.st1{fill:url(#SVGID_2_);}
	.st2{fill:#91B3FA;}
	.st3{opacity:0.64;}
	.st4{fill:#FFFFFF;}
	.st5{fill:#BDD0FB;}
	.st6{fill:url(#SVGID_3_);}
	.st7{fill:url(#SVGID_4_);}
	.st8{fill:url(#SVGID_5_);}
	.st9{fill:url(#SVGID_6_);}
</style>
<linearGradient id="SVGID_1_" gradientUnits="userSpaceOnUse" x1="1890.9941" y1="-8.4328" x2="1891.7921" y2="-8.4328" gradientTransform="matrix(1.0292 -2.802438e-02 2.722036e-02 0.9996 -25.8901 44.5924)">
	<stop  offset="0" style="stop-color:#DAE3FE"/>
	<stop  offset="1" style="stop-color:#E9EFFD"/>
</linearGradient>
<line class="st0" x1="1920" y1="-16.8" x2="1920.8" y2="-16.8"/>
<linearGradient id="SVGID_2_" gradientUnits="userSpaceOnUse" x1="23.3147" y1="31.9602" x2="1890.5487" y2="31.9602" gradientTransform="matrix(1.0298 -2.804226e-02 2.721442e-02 0.9994 -27.131 44.6497)">
	<stop  offset="0" style="stop-color:#DAE3FE"/>
	<stop  offset="1" style="stop-color:#E9EFFD"/>
</linearGradient>
<polyline class="st1" points="1920,0 1920,99.5 -1.6,100.2 -0.4,0 "/>
<path class="st2" d="M1920.8,107.9l-357.2-0.4c15.9-16.2,36.9-26.7,60.5-28.5c3-0.2,5.9-0.3,8.9-0.3c28.7,0.5,56.1-11.9,75.8-34.3
	c14.4-16.4,34.3-27.3,56.9-29c9.9-0.8,19.7,0.3,28.9,2.9c18.5,5.2,38,0.4,52.2-13c10.7-10,24.4-16.5,39.7-17.7
	c12-0.9,23.6,1.5,33.9,6.6"/>
<g>
	<g>
		<g class="st3">
			<path class="st4" d="M1785.2,5.8c0.5,0.9,0.3,2.1-0.6,2.8c-0.9,0.7-1.8,1.4-2.6,2.2c-0.9,0.8-2.3,0.6-3.1-0.3
				c-0.8-0.9-0.6-2.3,0.3-3.1c0.9-0.8,1.8-1.5,2.8-2.3c0.9-0.7,2.3-0.6,3.1,0.4C1785.1,5.6,1785.2,5.7,1785.2,5.8z"/>
			<path class="st4" d="M1937.7,94.7c0.2,0.4,0.3,0.9,0.2,1.3c-0.1,1.2-0.3,2.4-0.5,3.6c-0.2,1.2-1.3,2-2.5,1.8
				c-1.2-0.2-2-1.3-1.8-2.5c0.2-1.1,0.3-2.3,0.5-3.4c0.1-1.2,1.2-2.1,2.4-1.9C1936.7,93.6,1937.3,94.1,1937.7,94.7z"/>
		</g>
		<g>
			<g>
				<path class="st5" d="M1911.5,104.8c0.2-0.5,0.1-1-0.3-1.3l-10.4-9.4c1-6.5,1-13.2,0-20l10.3-9.3c0.4-0.3,0.5-0.9,0.3-1.3
					l-6.4-15.7c-0.2-0.5-0.6-0.7-1.1-0.7l-13.8,0.8c-3.9-5.5-8.6-10.3-13.9-14.1l0.8-14.1c0-0.5-0.3-1-0.7-1.1l-15.4-6.5
					c-0.4-0.2-1-0.1-1.3,0.3l-9.2,10.6c-6.4-1.1-13-1.1-19.6-0.1l-9.2-10.6c-0.3-0.4-0.8-0.5-1.3-0.3l-15.3,6.4
					c-0.4,0.2-0.7,0.6-0.7,1.1l0.9,14.1c-5.4,3.9-10,8.7-13.8,14.1l-13.8-0.9c-0.5,0-0.9,0.3-1.1,0.7l-6.3,15.6
					c-0.2,0.5-0.1,1,0.3,1.3l10.4,9.4c-1,6.5-1,13.2,0,20l-10.3,9.3c-0.4,0.3-0.5,0.9-0.3,1.3l6.4,15.7c0.2,0.5,0.6,0.7,1.1,0.7
					l13.8-0.8c3.9,5.5,8.6,10.3,13.9,14.1l-0.8,14.1c0,0.5,0.3,1,0.7,1.1l15.4,6.5c0.4,0.2,1,0.1,1.3-0.3l9.2-10.6
					c6.4,1.1,13,1.1,19.6,0.1l9.2,10.6c0.3,0.4,0.8,0.5,1.3,0.3l15.3-6.4c0.4-0.2,0.7-0.6,0.7-1.1l-0.9-14.1
					c5.4-3.9,10-8.7,13.8-14.1l13.8,0.9c0.5,0,0.9-0.3,1.1-0.7L1911.5,104.8z"/>
			</g>
			
				<linearGradient id="SVGID_3_" gradientUnits="userSpaceOnUse" x1="1708.2253" y1="78.6143" x2="1743.594" y2="78.6143" gradientTransform="matrix(-0.4739 -0.8806 0.8806 -0.4739 2589.5752 1640.9431)">
				<stop  offset="0" style="stop-color:#DAE3FE"/>
				<stop  offset="1" style="stop-color:#E9EFFD"/>
			</linearGradient>
			<path class="st6" d="M1856.1,75.6c4,7.6,2.1,17.3-4.9,22.6c-3.7,2.8-8.3,4-12.9,3.3c-4.6-0.7-8.7-3.2-11.4-7
				c-5.7-7.9-4.2-19,3.5-24.8c7.7-5.8,18.6-4.2,24.3,3.7l0,0C1855.3,74.1,1855.7,74.8,1856.1,75.6z M1852.7,74.9L1852.7,74.9
				L1852.7,74.9z M1830.2,89.7c0.3,0.5,0.6,1,1,1.5c1.9,2.7,4.8,4.4,8,4.9c3.2,0.5,6.4-0.3,9-2.3c5.4-4.1,6.5-11.8,2.4-17.3
				c-4-5.5-11.6-6.7-17-2.6C1828.7,77.6,1827.4,84.4,1830.2,89.7z"/>
			
				<linearGradient id="SVGID_4_" gradientUnits="userSpaceOnUse" x1="1684.4521" y1="78.3702" x2="1767.8849" y2="78.3702" gradientTransform="matrix(-0.4739 -0.8806 0.8806 -0.4739 2589.5752 1640.9431)">
				<stop  offset="0" style="stop-color:#DAE3FE"/>
				<stop  offset="1" style="stop-color:#E9EFFD"/>
			</linearGradient>
			<path class="st7" d="M1876.5,64c0.7,1.2,1.3,2.5,1.8,3.8c0.2,0.5,0.4,1.1,0.6,1.6c0.8,2.3,1.5,4.6,1.9,6.9
				c0.1,0.4-0.1,0.8-0.4,0.9c-0.1,0-0.2,0.1-0.3,0.1c-0.5,0.1-0.9-0.2-1-0.7c-0.5-2.8-1.3-5.5-2.4-8.2l0,0
				c-5.6-13.6-17.7-22.5-31-24.4c-6.4-0.9-13.1-0.2-19.4,2.3c-0.3,0.1-0.6,0.2-0.8,0.3c-1.2,0.5-2.4,1.1-3.6,1.7
				c-17.5,9.6-25.3,31.4-17.5,50.5c8.3,20.4,31.4,30.2,51.3,21.8c1.2-0.5,2.4-1.1,3.6-1.7c5-2.8,9.4-6.6,12.9-11.3
				c0.1-0.1,0.2-0.2,0.3-0.3c0.3-0.2,0.7-0.1,0.9,0.1c0.4,0.3,0.5,0.8,0.2,1.2c-3.6,4.9-8.2,8.9-13.4,11.8c-1.2,0.7-2.5,1.3-3.8,1.8
				c-20.8,8.8-44.9-1.5-53.6-22.8c-8.2-20,0-42.8,18.3-52.7c1.2-0.7,2.5-1.3,3.8-1.8C1844.3,36.9,1866.7,45.4,1876.5,64z"/>
		</g>
	</g>
	<g>
		<g>
			<g class="st3">
				<path class="st4" d="M1708.3-19.4c0.1,0.6-0.3,1.2-0.9,1.4c-0.6,0.2-1.3,0.4-1.9,0.7c-0.7,0.2-1.4-0.1-1.6-0.8
					c-0.2-0.7,0.1-1.4,0.8-1.7c0.7-0.2,1.3-0.5,2-0.7c0.7-0.2,1.4,0.2,1.6,0.9C1708.2-19.6,1708.3-19.5,1708.3-19.4z"/>
				<path class="st4" d="M1774.9,61.1c0,0.3,0,0.5-0.1,0.8c-0.3,0.6-0.7,1.3-1,1.9c-0.4,0.6-1.1,0.9-1.8,0.5
					c-0.6-0.4-0.8-1.2-0.5-1.8c0.3-0.6,0.7-1.2,1-1.8c0.3-0.6,1.1-0.9,1.7-0.6C1774.6,60.3,1774.8,60.7,1774.9,61.1z"/>
			</g>
			<g>
				<g>
					<path class="st5" d="M1758.3,61.4c0.2-0.2,0.2-0.5,0.1-0.8l-3.9-7.3c1.9-3.4,3.3-7.2,4-11.1l7.7-3.1c0.3-0.1,0.4-0.4,0.4-0.7
						l-0.4-10c0-0.3-0.2-0.5-0.5-0.6l-7.9-2.4c-1-3.9-2.7-7.5-4.8-10.7l3.3-7.7c0.1-0.3,0.1-0.6-0.2-0.8l-7.2-6.8
						c-0.2-0.2-0.5-0.2-0.8-0.1l-7.2,4c-3.3-1.9-7-3.3-10.9-4l-3-7.8c-0.1-0.3-0.4-0.4-0.7-0.4l-9.8,0.5c-0.3,0-0.5,0.2-0.6,0.5
						l-2.4,8c-3.8,1.1-7.4,2.8-10.5,5l-7.5-3.3c-0.3-0.1-0.6,0-0.8,0.2l-6.7,7.4c-0.2,0.2-0.2,0.5-0.1,0.8l3.9,7.3
						c-1.9,3.4-3.3,7.2-4,11.1l-7.7,3.1c-0.3,0.1-0.4,0.4-0.4,0.7l0.4,10c0,0.3,0.2,0.5,0.5,0.6l7.9,2.4c1,3.9,2.7,7.5,4.8,10.7
						l-3.3,7.7c-0.1,0.3-0.1,0.6,0.2,0.8l7.2,6.8c0.2,0.2,0.5,0.2,0.8,0.1l7.2-4c3.3,1.9,7,3.3,10.9,4l3,7.8
						c0.1,0.3,0.4,0.4,0.7,0.4l9.8-0.5c0.3,0,0.5-0.2,0.6-0.5l2.4-8c3.8-1.1,7.4-2.8,10.5-5l7.5,3.3c0.3,0.1,0.6,0,0.8-0.2
						L1758.3,61.4z"/>
				</g>
				
					<linearGradient id="SVGID_5_" gradientUnits="userSpaceOnUse" x1="1812.651" y1="-0.3977" x2="1833.5986" y2="-0.3977" gradientTransform="matrix(-0.1418 -0.9899 0.9899 -0.1418 1982.1848 1840.0088)">
					<stop  offset="0" style="stop-color:#DAE3FE"/>
					<stop  offset="1" style="stop-color:#E9EFFD"/>
				</linearGradient>
				<path class="st8" d="M1733.5,33.8c0.7,5.1-2.4,10-7.3,11.6c-2.6,0.8-5.4,0.5-7.8-0.8c-2.4-1.3-4.2-3.5-4.9-6.2
					c-1.6-5.5,1.5-11.4,7-13.1c5.4-1.7,11.2,1.5,12.8,7v0C1733.3,32.8,1733.4,33.3,1733.5,33.8z M1731.7,32.8L1731.7,32.8
					L1731.7,32.8z M1716.1,36.4c0,0.4,0.1,0.7,0.2,1.1c0.5,1.9,1.8,3.4,3.5,4.3c1.7,0.9,3.6,1.1,5.5,0.6c3.8-1.2,6-5.3,4.9-9.1
					c-1.1-3.9-5.1-6.1-8.9-4.9C1717.8,29.4,1715.7,32.9,1716.1,36.4z"/>
				
					<linearGradient id="SVGID_6_" gradientUnits="userSpaceOnUse" x1="1798.571" y1="-0.5422" x2="1847.9854" y2="-0.5422" gradientTransform="matrix(-0.1418 -0.9899 0.9899 -0.1418 1982.1848 1840.0088)">
					<stop  offset="0" style="stop-color:#DAE3FE"/>
					<stop  offset="1" style="stop-color:#E9EFFD"/>
				</linearGradient>
				<path class="st9" d="M1747.2,31.6c0.1,0.8,0.2,1.7,0.2,2.5c0,0.3,0,0.7,0,1c0,1.4-0.1,2.9-0.4,4.2c0,0.2-0.2,0.4-0.4,0.4
					c-0.1,0-0.1,0-0.2,0c-0.3,0-0.5-0.3-0.4-0.6c0.3-1.7,0.4-3.3,0.3-5l0,0c-0.3-8.7-5.2-16.1-12.3-19.9c-3.4-1.8-7.2-2.8-11.3-2.7
					c-0.2,0-0.4,0-0.5,0c-0.8,0-1.6,0.1-2.4,0.2c-11.7,1.8-20.5,12.3-20,24.5c0.5,13,11.3,23.2,24.1,22.6c0.8,0,1.6-0.1,2.4-0.2
					c3.4-0.5,6.6-1.8,9.5-3.7c0.1,0,0.1-0.1,0.2-0.1c0.2,0,0.4,0.1,0.5,0.2c0.2,0.2,0.1,0.6-0.2,0.7c-3,2-6.4,3.3-9.9,3.8
					c-0.8,0.1-1.6,0.2-2.5,0.2c-13.4,0.6-24.7-10-25.2-23.6c-0.5-12.8,8.7-23.8,20.9-25.6c0.8-0.1,1.6-0.2,2.5-0.2
					C1734.8,9.9,1745.5,19.2,1747.2,31.6z"/>
			</g>
		</g>
	</g>
</g>
</svg>
